<svg version="1.1" xmlns="http://www.w3.org/2000/svg" xmlns:xlink="http://www.w3.org/1999/xlink" width="222.61326" height="173" viewBox="0,0,222.61326,173"><g transform="translate(-127.33333,-93.5)"><g stroke-miterlimit="10"><path d="M153.5,266.5v-173h173v173z" fill="none" stroke="none" stroke-width="0" stroke-linecap="butt"/><path d="M169,249.5c-4.22472,-4.65157 -9.5,-44.84131 -9.5,-71.25c0,-24.82687 7.0654,-61.40833 12.25,-68c5.51909,-7.01693 42.7918,-10.75 68.5,-10.75c25.62487,0 62.91123,4.45354 68.75,10c3.42037,3.24913 12.5,40.64152 12.5,66.75c0,25.19211 -2.99554,70.19968 -7.75,74.5c-3.09901,2.803 -44.87513,8.75 -70.5,8.75c-25.7082,0 -69.55266,-4.82805 -74.25,-10z" fill="#648aff" stroke="#000000" stroke-width="4" stroke-linecap="butt"/><path d="M181.62784,112.82753c-1.30151,-1.14967 1.48217,-5.67449 3.04803,-8.10178c1.40055,-2.17103 4.88903,-5.73194 6.11642,-5.68215c3.33856,0.13543 39.21154,17.50176 44.46851,20.55726c1.38872,0.80716 -0.63859,5.21106 -2.13104,7.52455c-1.49245,2.31349 -5.02438,6.96733 -6.19439,6.64725c-0.35971,-0.0984 -0.89811,-0.31981 -1.62993,-0.56302c-9.36164,-3.11118 -41.4042,-18.37392 -43.67761,-20.38211z" fill="#000000" stroke="#000000" stroke-width="4" stroke-linecap="butt"/><path d="M254.7714,133.46388c-0.72265,0.2692 -1.2528,0.50971 -1.60876,0.62091c-1.15782,0.36169 -4.85384,-4.16294 -6.42803,-6.4216c-1.57418,-2.25866 -3.7576,-6.58729 -2.39862,-7.44357c5.1444,-3.24145 40.37374,-21.87887 43.70533,-22.13353c1.22482,-0.09362 4.83835,3.34032 6.31561,5.45991c1.65162,2.36977 4.59524,6.7922 3.33566,7.98766c-2.20017,2.08817 -33.67674,18.48643 -42.92119,21.93024z" fill="#000000" stroke="#000000" stroke-width="4" stroke-linecap="butt"/><path d="M180.65769,157.12176c0,0 5.62086,-27.47834 23.19999,-26.62424c16.06503,0.78053 21.81749,26.71081 21.81749,26.71081" fill="none" stroke="#000000" stroke-width="4" stroke-linecap="round"/><path d="M254.65769,157.45509c0,0 5.62086,-27.47834 23.19999,-26.62424c16.06504,0.78053 21.81749,26.71081 21.81749,26.71081" fill="none" stroke="#000000" stroke-width="4" stroke-linecap="round"/><path d="M132.65152,149.66667c0,0 3.52327,5.63393 5.89423,6.93796c2.35622,1.29592 8.28759,0.86203 8.28759,0.86203c0,0 -4.62658,4.25049 -5.30102,6.58039c-0.62117,2.14584 1.40102,6.89234 1.40102,6.89234c0,0 -4.88027,-4.35316 -7.63373,-5.35441c-2.39696,-0.87162 -7.96627,-0.31831 -7.96627,-0.31831c0,0 4.80022,-4.17703 5.68934,-6.7851c0.88358,-2.59182 -0.37116,-8.81491 -0.37116,-8.81491z" fill="#fff152" stroke="none" stroke-width="0" stroke-linecap="round"/><path d="M345.69096,98.77827c0,0 -2.78874,8.58102 -2.07727,12.18571c0.70705,3.58228 6.3329,9.37561 6.3329,9.37561c0,0 -8.45891,-1.10614 -11.47165,0.22462c-2.77474,1.22563 -5.94957,7.47053 -5.94957,7.47053c0,0 0.27222,-8.87572 -1.08797,-12.61428c-1.18409,-3.25452 -6.61836,-8.56694 -6.61836,-8.56694c0,0 8.53397,1.35091 12.02342,0.00086c3.46772,-1.34164 8.84851,-8.07611 8.84851,-8.07611z" fill="#fff152" stroke="none" stroke-width="0" stroke-linecap="round"/></g></g></svg>