<svg version="1.1" xmlns="http://www.w3.org/2000/svg" xmlns:xlink="http://www.w3.org/1999/xlink" width="173.82251" height="173" viewBox="0,0,173.82251,173"><g transform="translate(-153.5,-93.5)"><g stroke-miterlimit="10"><path d="M153.5,266.5v-173h173v173z" fill="none" stroke="none" stroke-width="0" stroke-linecap="butt"/><path d="M169,249.5c-4.22472,-4.65157 -10,-44.34131 -10,-70.75c0,-24.82687 7.5654,-61.90833 12.75,-68.5c5.51909,-7.01693 42.7918,-10.75 68.5,-10.75c25.62487,0 62.91123,4.45354 68.75,10c3.42037,3.24913 12.5,40.64152 12.5,66.75c0,25.19211 -2.99554,70.19968 -7.75,74.5c-3.09901,2.803 -44.87513,8.75 -70.5,8.75c-25.7082,0 -69.55266,-4.82805 -74.25,-10z" fill="#648aff" stroke="#000000" stroke-width="4" stroke-linecap="butt"/><path d="M222.16667,138l12.33334,24.33334" fill="none" stroke="#5f0000" stroke-width="4" stroke-linecap="round"/><path d="M231.16667,136.33334l13,25" fill="none" stroke="#5f0000" stroke-width="4" stroke-linecap="round"/><path d="M240.5,133.66667l13,26" fill="none" stroke="#5f0000" stroke-width="4" stroke-linecap="round"/><path d="M264.83333,149c0,10.30932 -10.8944,18.66667 -24.33333,18.66667c-13.43893,0 -24.33333,-8.35735 -24.33333,-18.66667c0,-10.30932 10.8944,-18.66667 24.33333,-18.66667c13.43893,0 24.33333,8.35735 24.33333,18.66667z" fill-opacity="0.18039" fill="#9e0000" stroke="none" stroke-width="0" stroke-linecap="butt"/><path d="M227.64102,147.28032c0,13.27158 -10.70212,24.03032 -23.90385,24.03032c-13.20173,0 -23.90385,-10.75874 -23.90385,-24.03032c0,-13.27158 10.70212,-24.03032 23.90385,-24.03032c13.20173,0 23.90385,10.75874 23.90385,24.03032z" fill="#ffffff" stroke="#000000" stroke-width="4" stroke-linecap="butt"/><path d="M300.16667,147.59076c0,7.42557 -5.01697,15.3746 -10.28086,18.58748c-4.14416,2.52944 -7.14108,0.44285 -12.95632,0.44285c-6.23917,0 -9.25339,1.89819 -13.51013,-1.0165c-4.75028,-3.25262 -11.06038,-11.01443 -11.06038,-18.01382c0,-13.27158 10.70212,-24.03032 23.90385,-24.03032c13.20173,0 23.90384,10.75874 23.90384,24.03032z" fill="#ffffff" stroke="#000000" stroke-width="4" stroke-linecap="butt"/><path d="M209.16667,146.41667c0,2.48528 -2.01472,4.5 -4.49999,4.5c-2.48528,0 -4.5,-2.01472 -4.5,-4.5c0,-2.48528 2.01472,-4.49999 4.5,-4.49999c2.48528,0 4.49999,2.01472 4.49999,4.49999z" fill="#000000" stroke="#000000" stroke-width="4" stroke-linecap="butt"/><path d="M279.83333,146.08334c0,2.48529 -2.01472,4.50001 -4.5,4.50001c-2.48528,0 -4.5,-2.01472 -4.5,-4.50001c0,-2.48529 2.01472,-4.50001 4.5,-4.50001c2.48528,0 4.5,2.01472 4.5,4.50001z" fill="#000000" stroke="#000000" stroke-width="4" stroke-linecap="butt"/><path d="M191.59028,115.45293c-0.67028,-1.602 3.80727,-4.4611 6.27453,-5.96319c2.20678,-1.34351 6.89853,-3.02788 7.98149,-2.4481c2.94573,1.57704 27.66256,32.84264 31.06213,37.88395c0.89806,1.33175 -2.84604,4.41169 -5.19762,5.84335c-2.35159,1.43167 -7.55881,4.08075 -8.47232,3.28272c-0.28085,-0.24534 -0.66892,-0.67929 -1.22156,-1.21715c-7.06956,-6.88049 -29.25585,-34.5833 -30.42664,-37.38158z" fill="#000000" stroke="#000000" stroke-width="4" stroke-linecap="butt"/><path d="M259.28456,152.66893c-0.54053,0.55003 -0.91884,0.99249 -1.19416,1.24403c-0.89551,0.81818 -6.16043,-1.71431 -8.54331,-3.09327c-2.38288,-1.37895 -6.19462,-4.37477 -5.32644,-5.72618c3.28648,-5.11576 27.30108,-36.9239 30.21096,-38.56614c1.06979,-0.60375 5.79787,0.97574 8.03403,2.26978c2.50009,1.44679 7.04017,4.20549 6.40574,5.82201c-1.1082,2.82367 -22.67221,31.01357 -29.58681,38.04977z" fill="#000000" stroke="#000000" stroke-width="4" stroke-linecap="butt"/><path d="M184.40244,170.56447c0,0 -3.45743,-2.20469 -4.53123,-3.28773c-1.20211,-1.21245 -2.34002,-3.64268 -2.34002,-3.64268" fill="none" stroke="#000000" stroke-width="4" stroke-linecap="round"/><path d="M295.5,103.41558c0,0 8.28703,4.82463 9.61776,8.29609c1.41837,3.70009 -1.35369,13.26235 -1.35369,13.26235" fill="none" stroke="#a90000" stroke-width="4" stroke-linecap="round"/><path d="M306.27922,97.66667c0,0 3.24725,6.55151 5.71464,7.62429c2.95394,1.28432 10.81349,-0.43814 10.81349,-0.43814" fill="none" stroke="#a90000" stroke-width="4" stroke-linecap="round"/><path d="M325.32251,109.88312c0,0 -9.78169,2.46801 -12.20413,5.00862c-2.48642,2.60771 -2.52747,10.44159 -2.52747,10.44159" fill="none" stroke="#a90000" stroke-width="4" stroke-linecap="round"/></g></g></svg>