<svg version="1.1" xmlns="http://www.w3.org/2000/svg" xmlns:xlink="http://www.w3.org/1999/xlink" width="173" height="173" viewBox="0,0,173,173"><g transform="translate(-153.5,-93.5)"><g stroke-miterlimit="10"><path d="M153.5,266.5v-173h173v173z" fill="none" stroke="none" stroke-width="0"/><path d="M169,249.5c-4.22472,-4.65157 -9.5,-44.84131 -9.5,-71.25c0,-24.82687 7.0654,-61.40833 12.25,-68c5.51909,-7.01693 42.7918,-10.75 68.5,-10.75c25.62487,0 62.91123,4.45354 68.75,10c3.42037,3.24913 12.5,40.64152 12.5,66.75c0,25.19211 -2.99554,70.19968 -7.75,74.5c-3.09901,2.803 -44.87513,8.75 -70.5,8.75c-25.7082,0 -69.55266,-4.82805 -74.25,-10z" fill="#ff9b55" stroke="#000000" stroke-width="4"/><path d="M232.54166,156.64559c0,14.30908 -11.81821,20.0558 -25.98553,20.0558c-14.16732,0 -25.31887,-5.74671 -25.31887,-20.0558c0,-14.30908 11.48488,-12.35438 25.6522,-12.35438c14.16732,0 25.6522,-1.95471 25.6522,12.35438z" fill="#ffffff" stroke="#000000" stroke-width="4"/><path d="M223.60144,153.99697c0,4.53448 -3.97753,8.21039 -8.88405,8.21039c-4.90653,0 -8.88406,-3.67591 -8.88406,-8.21039c0,-4.53448 3.97753,-8.21039 8.88406,-8.21039c4.90653,0 8.88405,3.67591 8.88405,8.21039z" fill="#000000" stroke="#000000" stroke-width="4"/><path d="M298.76274,157.79786c0,13.52334 -11.48487,19.21313 -25.65219,19.21313c-14.16732,0 -25.6522,-5.68979 -25.6522,-19.21313c0,-13.52334 12.48488,-12.1824 26.6522,-12.1824c14.16732,0 24.65219,-1.34094 24.65219,12.1824z" fill="#ffffff" stroke="#000000" stroke-width="4"/><path d="M274.22463,154.97819c0,4.31206 -3.97753,7.80767 -8.88406,7.80767c-4.90653,0 -8.88406,-3.49561 -8.88406,-7.80767c0,-4.31206 3.97753,-7.80767 8.88406,-7.80767c4.90653,0 8.88406,3.49561 8.88406,7.80767z" fill="#000000" stroke="#000000" stroke-width="4"/></g></g></svg>