<svg version="1.1" xmlns="http://www.w3.org/2000/svg" xmlns:xlink="http://www.w3.org/1999/xlink" width="220.44661" height="173" viewBox="0,0,220.44661,173"><g transform="translate(-124.49999,-93.5)"><g stroke-miterlimit="10"><path d="M153.5,266.5v-173h173v173z" fill="none" stroke="none" stroke-width="0" stroke-linecap="butt"/><path d="M169,249.5c-4.22472,-4.65157 -9.5,-44.84131 -9.5,-71.25c0,-24.82687 7.0654,-61.40833 12.25,-68c5.51909,-7.01693 42.7918,-10.75 68.5,-10.75c25.62487,0 62.91123,4.45354 68.75,10c3.42037,3.24913 12.5,40.64152 12.5,66.75c0,25.19211 -2.99554,70.19968 -7.75,74.5c-3.09901,2.803 -44.87513,8.75 -70.5,8.75c-25.7082,0 -69.55266,-4.82805 -74.25,-10z" fill="#ff5468" stroke="#000000" stroke-width="4" stroke-linecap="butt"/><path d="M190.03477,143.63889l-2.1707,-9.70797" fill="none" stroke="#000000" stroke-width="4" stroke-linecap="round"/><path d="M178.99377,146.06363l2.44494,7.68581c0,0 12.43805,-19.04053 25.06065,-18.72855c16.25331,0.40171 25.93243,20.2806 25.93243,20.2806" fill="none" stroke="#000000" stroke-width="4" stroke-linecap="round"/><path d="M289.19079,143.23889l2.1707,-9.70797" fill="none" stroke="#000000" stroke-width="4" stroke-linecap="round"/><path d="M246.79377,154.90149c0,0 9.67912,-19.87889 25.93243,-20.2806c12.6226,-0.31198 25.06065,18.72855 25.06065,18.72855l2.44494,-7.68581" fill="none" stroke="#000000" stroke-width="4" stroke-linecap="round"/><path d="M131.13637,147.66667c0,0 4.39656,7.03038 7.35519,8.65763c2.94023,1.61713 10.34177,1.0757 10.34177,1.0757c0,0 -5.77334,5.30403 -6.61495,8.21143c-0.77513,2.67772 1.74828,8.6007 1.74828,8.6007c0,0 -6.08991,-5.43215 -9.52585,-6.68158c-2.99107,-1.08767 -9.94082,-0.39721 -9.94082,-0.39721c0,0 5.99001,-5.21236 7.09951,-8.46687c1.10259,-3.23424 -0.46315,-10.9998 -0.46315,-10.9998z" fill="#fff152" stroke="none" stroke-width="0" stroke-linecap="round"/><path d="M341.53777,100.27827c0,0 -2.23382,6.87353 -1.66392,9.76094c0.56636,2.86946 5.07275,7.51001 5.07275,7.51001c0,0 -6.77572,-0.88603 -9.18897,0.17992c-2.22261,0.98175 -4.7657,5.98401 -4.7657,5.98401c0,0 0.21805,-7.10959 -0.87148,-10.10423c-0.94847,-2.60692 -5.30141,-6.86225 -5.30141,-6.86225c0,0 6.83584,1.0821 9.63094,0.00069c2.7777,-1.07467 7.08779,-6.46909 7.08779,-6.46909z" fill="#fff152" stroke="none" stroke-width="0" stroke-linecap="round"/></g></g></svg>