<svg version="1.1" xmlns="http://www.w3.org/2000/svg" xmlns:xlink="http://www.w3.org/1999/xlink" width="173" height="173" viewBox="0,0,173,173"><g transform="translate(-153.5,-93.5)"><g stroke-miterlimit="10"><path d="M153.5,266.5v-173h173v173z" fill="none" stroke="none" stroke-width="0"/><path d="M168.0202,249.64867c-4.26984,-4.58241 -9.60145,-44.17465 -9.60145,-70.19071c0,-24.45776 7.14085,-60.49536 12.38082,-66.98903c5.57803,-6.91261 43.24877,-10.59018 69.23151,-10.59018c25.89852,0 63.58306,4.38733 69.48418,9.85133c3.4569,3.20082 12.63349,40.03729 12.63349,65.75762c0,24.81757 -3.02753,69.15601 -7.83276,73.39239c-3.1321,2.76133 -45.35435,8.61991 -71.25287,8.61991c-25.98274,0 -70.29541,-4.75627 -75.04292,-9.85133z" fill="#ff9b55" stroke="#000000" stroke-width="4"/><path d="M232.24042,156.55362c0,15.25296 -11.60753,27.61793 -25.92614,27.61793c-14.31861,0 -25.92614,-12.36496 -25.92614,-27.61793c0,-9.35567 7.73591,-9.74375 14.41691,-14.73947c4.21134,-3.14903 11.11857,-13.2013 16.56262,-12.22171c10.94969,1.97027 20.87275,11.7082 20.87275,26.96117z" fill="#ffffff" stroke="#000000" stroke-width="4"/><path d="M299.16868,156.70049c0,5.92722 -1.77462,11.41564 -4.79203,15.90221c-0.57715,0.85815 2.79163,-0.95042 6.04116,3.26733c3.78997,6.05285 1.99328,10.84829 0.93298,11.75747c-0.90753,0.77818 -6.3413,5.66648 -12.28741,1.40937c-5.17716,-2.11108 -3.6226,-8.09841 -4.26579,-7.75883c-3.47913,1.83687 -7.4031,2.87012 -11.55503,2.87012c-14.31861,0 -25.92614,-12.28874 -25.92614,-27.44767c0,-15.15893 10.59685,-27.44767 23.56789,-28.4328c4.32434,-0.32842 9.4368,9.99385 13.0294,11.98733c8.26714,4.58734 15.25499,5.87854 15.25499,16.44547z" fill="#ffffff" stroke="#000000" stroke-width="4"/><path d="M231.29016,152.41677c0,10.09297 -8.39412,18.27493 -18.74881,18.27493c-10.3547,0 -18.74883,-8.18195 -18.74883,-18.27493c0,-10.09297 8.39412,-18.27493 18.74883,-18.27493c10.3547,0 18.74881,8.18195 18.74881,18.27493z" fill="#000000" stroke="#000000" stroke-width="4"/><path d="M287.17046,153.46616c0,10.54637 -8.77121,19.09587 -19.59106,19.09587c-10.81985,0 -19.59106,-8.5495 -19.59106,-19.09587c0,-10.54637 8.77121,-19.09587 19.59106,-19.09587c10.81985,0 19.59106,8.5495 19.59106,19.09587z" fill="#000000" stroke="#000000" stroke-width="4"/><path d="M232.45667,144.29918c0,2.82374 -4.18914,5.11284 -9.3567,5.11284c-5.16756,0 -9.3567,-2.28909 -9.3567,-5.11284c0,-2.82374 4.18914,-5.11284 9.3567,-5.11284c5.16756,0 9.3567,2.28909 9.3567,5.11284z" fill="#ffffff" stroke="none" stroke-width="0"/><path d="M207.9598,166.02875c0,2.00015 -2.98042,3.62159 -6.65694,3.62159c-3.67654,0 -6.65695,-1.62144 -6.65695,-3.62159c0,-2.00015 2.98043,-3.62159 6.65695,-3.62159c3.67654,0 6.65694,1.62144 6.65694,3.62159z" fill="#ffffff" stroke="none" stroke-width="0"/><path d="M288.84498,144.4057c0,2.5296 -4.00405,4.58026 -8.9433,4.58026c-4.93925,0 -8.9433,-2.05065 -8.9433,-4.58026c0,-2.5296 4.00405,-4.58026 8.9433,-4.58026c4.93925,0 8.9433,2.05065 8.9433,4.58026z" fill="#ffffff" stroke="none" stroke-width="0"/><path d="M266.7276,169.11776c0,2.05898 -3.21953,3.72811 -7.19102,3.72811c-3.97149,0 -7.19102,-1.66913 -7.19102,-3.72811c0,-2.05898 3.21953,-3.72811 7.19102,-3.72811c3.97149,0 7.19102,1.66913 7.19102,3.72811z" fill="#ffffff" stroke="none" stroke-width="0"/></g></g></svg>