<svg version="1.1" xmlns="http://www.w3.org/2000/svg" xmlns:xlink="http://www.w3.org/1999/xlink" width="173" height="173" viewBox="0,0,173,173"><g transform="translate(-153.5,-93.5)"><g stroke-miterlimit="10"><path d="M153.5,266.5v-173h173v173z" fill="none" stroke="none" stroke-width="0" stroke-linecap="butt"/><path d="M167.19547,249.6875c-4.31165,-4.56435 -9.69547,-44.00054 -9.69547,-69.91406c0,-24.36137 7.21078,-60.25692 12.50206,-66.725c5.63265,-6.88536 43.67229,-10.54844 69.90947,-10.54844c26.15213,0 64.2057,4.37004 70.16461,9.8125c3.49075,3.18821 12.7572,39.87949 12.7572,65.49844c0,24.71976 -3.05718,68.88344 -7.90947,73.10313c-3.16278,2.75044 -45.79849,8.58594 -71.95062,8.58594c-26.23718,0 -70.98378,-4.73752 -75.77778,-9.8125z" fill="#ff5468" stroke="#000000" stroke-width="4" stroke-linecap="butt"/><path d="M273.61481,142.40545c13.60084,0 23.4265,-4.3503 23.4265,10.51375c0,14.86407 -10.42566,14.51376 -24.0265,14.51376c-13.60084,0 -25.22649,0.3503 -25.22649,-14.51376c0,-14.86407 12.22565,-10.51375 25.82649,-10.51375z" fill="#ffffff" stroke="#000000" stroke-width="4" stroke-linecap="butt"/><path d="M288.10445,140.73157l5.70004,-5.3438" fill="none" stroke="#000000" stroke-width="4" stroke-linecap="round"/><path d="M298.43577,149.63788l5.3438,-2.49377" fill="none" stroke="#000000" stroke-width="4" stroke-linecap="round"/><path d="M276.68722,145.04388c3.14082,0 5.68696,2.54613 5.68696,5.68695c0,3.14082 -2.54613,5.68695 -5.68696,5.68695c-3.14081,0 -5.68694,-2.54613 -5.68694,-5.68695c0,-3.14082 2.54612,-5.68695 5.68694,-5.68695z" fill="#000000" stroke="#000000" stroke-width="4" stroke-linecap="butt"/><path d="M230.46667,165.06667c0,0 -3.28391,1.20293 -5.28511,1.42181c-2.23876,0.24486 -7.51489,-0.02181 -7.51489,-0.02181" fill="none" stroke="#000000" stroke-width="4" stroke-linecap="round"/><g fill="none" stroke="#000000" stroke-width="4" stroke-linecap="round"><path d="M229.70833,160.58334c0,0 -18.01752,0.15912 -26.28124,-0.58135c-7.03897,-0.63073 -20.21876,-3.58531 -20.21876,-3.58531l-4,-5.16666"/><path d="M193.54167,156.75001l-2.66667,-6.33334"/></g></g></g></svg>