<svg version="1.1" xmlns="http://www.w3.org/2000/svg" xmlns:xlink="http://www.w3.org/1999/xlink" width="181.44943" height="173" viewBox="0,0,181.44943,173"><g transform="translate(-153.5,-93.5)"><g stroke-miterlimit="10"><path d="M153.5,266.5v-173h173v173z" fill="none" stroke="none" stroke-width="0" stroke-linecap="butt"/><path d="M169,249.5c-4.22472,-4.65157 -10,-44.34131 -10,-70.75c0,-24.82687 7.5654,-61.90833 12.75,-68.5c5.51909,-7.01693 42.7918,-10.75 68.5,-10.75c25.62487,0 62.91123,4.45354 68.75,10c3.42037,3.24913 12.5,40.64152 12.5,66.75c0,25.19211 -2.99554,70.19968 -7.75,74.5c-3.09901,2.803 -44.87513,8.75 -70.5,8.75c-25.7082,0 -69.55266,-4.82805 -74.25,-10z" fill="#648aff" stroke="#000000" stroke-width="4" stroke-linecap="butt"/><path d="M222.16667,138l12.33334,24.33334" fill="none" stroke="#5f0000" stroke-width="4" stroke-linecap="round"/><path d="M160.96667,143.10543l9.40776,18.56125" fill="none" stroke="#5f0000" stroke-width="4" stroke-linecap="round"/><path d="M167.83179,141.83411l9.91628,19.06977" fill="none" stroke="#5f0000" stroke-width="4" stroke-linecap="round"/><path d="M174.95116,139.8l9.91628,19.83256" fill="none" stroke="#5f0000" stroke-width="4" stroke-linecap="round"/><path d="M231.16667,136.33334l13,25" fill="none" stroke="#5f0000" stroke-width="4" stroke-linecap="round"/><path d="M240.5,133.66667l13,26" fill="none" stroke="#5f0000" stroke-width="4" stroke-linecap="round"/><path d="M299.16667,142.30543l9.40775,18.56125" fill="none" stroke="#5f0000" stroke-width="4" stroke-linecap="round"/><path d="M264.83333,149c0,10.30932 -10.8944,18.66667 -24.33333,18.66667c-13.43893,0 -24.33333,-8.35735 -24.33333,-18.66667c0,-10.30932 10.8944,-18.66667 24.33333,-18.66667c13.43893,0 24.33333,8.35735 24.33333,18.66667z" fill-opacity="0.37255" fill="#9e0000" stroke="none" stroke-width="0" stroke-linecap="butt"/><path d="M306.03179,141.03412l9.91628,19.06977" fill="none" stroke="#5f0000" stroke-width="4" stroke-linecap="round"/><path d="M313.15117,139.00001l9.91628,19.83256" fill="none" stroke="#5f0000" stroke-width="4" stroke-linecap="round"/><path d="M183.43333,151c0,10.30932 -6.05908,18.66667 -13.53333,18.66667c-7.47425,0 -13.53333,-8.35735 -13.53333,-18.66667c0,-10.30932 6.05908,-18.66667 13.53333,-18.66667c7.47425,0 13.53333,8.35735 13.53333,18.66667z" fill-opacity="0.37255" fill="#9e0000" stroke="none" stroke-width="0" stroke-linecap="butt"/><path d="M326.43333,150.8c0,10.30932 -6.41725,18.66667 -14.33333,18.66667c-7.91608,0 -14.33333,-8.35735 -14.33333,-18.66667c0,-10.30932 6.41725,-18.66667 14.33333,-18.66667c7.91608,0 14.33333,8.35735 14.33333,18.66667z" fill-opacity="0.37255" fill="#9e0000" stroke="none" stroke-width="0" stroke-linecap="butt"/><path d="M227.64102,147.28032c0,13.27158 -10.70212,24.03032 -23.90385,24.03032c-13.20173,0 -23.90385,-10.75874 -23.90385,-24.03032c0,-13.27158 10.70212,-24.03032 23.90385,-24.03032c13.20173,0 23.90385,10.75874 23.90385,24.03032z" fill="#ffffff" stroke="#000000" stroke-width="4" stroke-linecap="butt"/><path d="M300.16667,147.59076c0,7.42557 -5.01697,15.3746 -10.28086,18.58748c-4.14416,2.52944 -7.14108,0.44285 -12.95632,0.44285c-6.23917,0 -9.25339,1.89819 -13.51013,-1.0165c-4.75028,-3.25262 -11.06038,-11.01443 -11.06038,-18.01382c0,-13.27158 10.70212,-24.03032 23.90385,-24.03032c13.20173,0 23.90384,10.75874 23.90384,24.03032z" fill="#ffffff" stroke="#000000" stroke-width="4" stroke-linecap="butt"/><path d="M202.02382,145.72619c0,0.92047 -0.74619,1.66667 -1.66666,1.66667c-0.92047,0 -1.66666,-0.7462 -1.66666,-1.66667c0,-0.92047 0.7462,-1.66666 1.66666,-1.66666c0.92047,0 1.66666,0.74619 1.66666,1.66666z" fill="#000000" stroke="#000000" stroke-width="4" stroke-linecap="butt"/><path d="M284.11905,145.79763c0,2.48529 -2.01472,4.50001 -4.5,4.50001c-2.48528,0 -4.5,-2.01472 -4.5,-4.50001c0,-2.48529 2.01472,-4.50001 4.5,-4.50001c2.48528,0 4.5,2.01472 4.5,4.50001z" fill="#ffffff" stroke="#000000" stroke-width="4" stroke-linecap="butt"/><path d="M196.57101,115.52012c-0.3275,-1.70541 4.64122,-3.5855 7.36408,-4.54968c2.4354,-0.86239 7.37286,-1.54879 8.3139,-0.75924c2.55971,2.14763 20.33931,37.81757 22.63276,43.44891c0.60586,1.48762 -3.69029,3.73426 -6.28549,4.65323c-2.59521,0.91898 -8.23502,2.44388 -8.96546,1.47547c-0.22457,-0.29772 -0.5154,-0.80204 -0.94599,-1.4418c-5.50826,-8.18406 -21.54176,-39.84798 -22.1138,-42.82689z" fill="#000000" stroke="#000000" stroke-width="4" stroke-linecap="butt"/><path d="M264.42284,159.38783c-0.3716,0.67574 -0.61611,1.20404 -0.81313,1.52068c-0.64081,1.02991 -6.39449,0.01599 -9.06155,-0.66699c-2.66705,-0.68297 -7.14705,-2.53603 -6.6768,-4.0719c1.78015,-5.81404 16.29537,-42.93233 18.65254,-45.30046c0.8666,-0.87062 5.84566,-0.62896 8.34849,0.01196c2.79825,0.71658 7.9153,2.14434 7.74179,3.87221c-0.30309,3.01817 -13.43781,35.99022 -18.19134,44.63451z" fill="#000000" stroke="#000000" stroke-width="4" stroke-linecap="butt"/><path d="M184.40244,170.56447c0,0 -3.45743,-2.20469 -4.53123,-3.28773c-1.20211,-1.21245 -2.34002,-3.64268 -2.34002,-3.64268" fill="none" stroke="#000000" stroke-width="4" stroke-linecap="round"/><path d="M295.5,103.14891c0,0 8.28703,4.82463 9.61776,8.29609c1.41837,3.70009 -1.35369,13.26235 -1.35369,13.26235" fill="none" stroke="#a90000" stroke-width="4" stroke-linecap="round"/><path d="M322.74068,105.05282c0,0 -7.85955,1.72246 -10.81349,0.43814c-2.46739,-1.07278 -5.71464,-7.62429 -5.71464,-7.62429" fill="none" stroke="#a90000" stroke-width="4" stroke-linecap="round"/><path d="M310.65758,125.33333c0,0 0.04105,-7.83388 2.52747,-10.44159c2.42244,-2.54061 12.20413,-5.00862 12.20413,-5.00862" fill="none" stroke="#a90000" stroke-width="4" stroke-linecap="round"/><path d="M234.41429,155.01905c0,0 -0.96904,-24.01563 -1.2,-25c-0.32368,-1.37954 -2.8,16.6 -2.8,16.6" fill="none" stroke="#000000" stroke-width="4" stroke-linecap="round"/><path d="M247.61429,155.41905c0,0 0.96904,-24.01563 1.2,-25c0.32368,-1.37954 2.8,16.6 2.8,16.6" fill="none" stroke="#000000" stroke-width="4" stroke-linecap="round"/><path d="M238.63651,148.44672l0.11111,6.33333" fill="none" stroke="#000000" stroke-width="4" stroke-linecap="round"/><path d="M243.08096,148.3356l0.33333,6.44444" fill="none" stroke="#000000" stroke-width="4" stroke-linecap="round"/><path d="M320.05949,123.29861c0,0 1.25604,6.35066 0.092,8.5743c-1.2407,2.37008 -7.3209,5.2349 -7.3209,5.2349" fill="none" stroke="#a90000" stroke-width="4" stroke-linecap="round"/><path d="M332.94943,134.40132c0,0 -5.21685,-1.51341 -6.55453,-3.22785c-1.11734,-1.43205 -0.93013,-6.36493 -0.93013,-6.36493" fill="none" stroke="#a90000" stroke-width="4" stroke-linecap="round"/><path d="M317.13597,141.29958c0,0 3.31574,-4.12029 5.72549,-4.45207c2.34774,-0.32324 8.55182,2.48635 8.55182,2.48635" fill="none" stroke="#a90000" stroke-width="4" stroke-linecap="round"/></g></g></svg>