<svg version="1.1" xmlns="http://www.w3.org/2000/svg" xmlns:xlink="http://www.w3.org/1999/xlink" width="76" height="73.02986" viewBox="0,0,76,73.02986"><g transform="translate(-202,-143.48507)"><g stroke-miterlimit="10"><path d="M274.125,180.00004c0,17.85478 -15.27828,32.32895 -34.125,32.32895c-18.84672,0 -34.125,-14.47416 -34.125,-32.32895c0,-17.85478 15.27828,-32.32895 34.125,-32.32895c18.84672,0 34.125,14.47416 34.125,32.32895z" fill="#526eff" stroke="#4332e6" stroke-width="4" stroke-linecap="butt"/><path d="M218.3,198.20002c0,0 1.0415,-12.26316 21.8,-12.39993c20.4263,-0.13458 21.4,12.39993 21.4,12.39993" fill="none" stroke="#ffffff" stroke-width="4" stroke-linecap="round"/><path d="M214.9,176.80001l16.2,-6" fill="none" stroke="#ffffff" stroke-width="4" stroke-linecap="round"/><path d="M249.5,170.20001l15.8,6.6" fill="none" stroke="#ffffff" stroke-width="4" stroke-linecap="round"/><path d="M261.3,182.80001l-0.4,-7.8" fill="none" stroke="#ffffff" stroke-width="4" stroke-linecap="round"/><path d="M202,216.51493v-73.02986h76v73.02986z" fill="none" stroke="none" stroke-width="0" stroke-linecap="butt"/></g></g></svg>