<svg version="1.1" xmlns="http://www.w3.org/2000/svg" xmlns:xlink="http://www.w3.org/1999/xlink" width="220.44659" height="173" viewBox="0,0,220.44659,173"><g transform="translate(-124.5,-93.5)"><g stroke-miterlimit="10"><path d="M153.5,266.5v-173h173v173z" fill="none" stroke="none" stroke-width="0" stroke-linecap="butt"/><path d="M169,249.5c-4.22472,-4.65157 -9.5,-44.84131 -9.5,-71.25c0,-24.82687 7.0654,-61.40833 12.25,-68c5.51909,-7.01693 42.7918,-10.75 68.5,-10.75c25.62487,0 62.91123,4.45354 68.75,10c3.42037,3.24913 12.5,40.64152 12.5,66.75c0,25.19211 -2.99554,70.19968 -7.75,74.5c-3.09901,2.803 -44.87513,8.75 -70.5,8.75c-25.7082,0 -69.55266,-4.82805 -74.25,-10z" fill="#648aff" stroke="#000000" stroke-width="4" stroke-linecap="butt"/><path d="M181.62784,112.82753c-1.30151,-1.14967 1.48217,-5.67449 3.04803,-8.10178c1.40055,-2.17103 4.88903,-5.73194 6.11642,-5.68215c3.33856,0.13543 39.21154,17.50176 44.46851,20.55726c1.38872,0.80716 -0.63859,5.21106 -2.13104,7.52455c-1.49245,2.31349 -5.02438,6.96733 -6.19439,6.64725c-0.35971,-0.0984 -0.89811,-0.31981 -1.62993,-0.56302c-9.36164,-3.11118 -41.4042,-18.37392 -43.67761,-20.38211z" fill="#000000" stroke="#000000" stroke-width="4" stroke-linecap="butt"/><path d="M254.7714,133.46388c-0.72265,0.2692 -1.2528,0.50971 -1.60876,0.62091c-1.15782,0.36169 -4.85384,-4.16294 -6.42803,-6.4216c-1.57418,-2.25866 -3.7576,-6.58729 -2.39862,-7.44357c5.1444,-3.24145 40.37374,-21.87887 43.70533,-22.13353c1.22482,-0.09362 4.83835,3.34032 6.31561,5.45991c1.65162,2.36977 4.59524,6.7922 3.33566,7.98766c-2.20017,2.08817 -33.67674,18.48643 -42.92119,21.93024z" fill="#000000" stroke="#000000" stroke-width="4" stroke-linecap="butt"/><path d="M180.65769,157.12176c0,0 5.62086,-27.47834 23.19999,-26.62424c16.06503,0.78053 21.81749,26.71081 21.81749,26.71081" fill="none" stroke="#000000" stroke-width="4" stroke-linecap="round"/><path d="M254.65769,157.45509c0,0 5.62086,-27.47834 23.19999,-26.62424c16.06504,0.78053 21.81749,26.71081 21.81749,26.71081" fill="none" stroke="#000000" stroke-width="4" stroke-linecap="round"/><path d="M131.13637,147.66667c0,0 4.39656,7.03038 7.35519,8.65763c2.94023,1.61713 10.34177,1.0757 10.34177,1.0757c0,0 -5.77334,5.30403 -6.61495,8.21143c-0.77513,2.67772 1.74828,8.6007 1.74828,8.6007c0,0 -6.08991,-5.43215 -9.52585,-6.68158c-2.99107,-1.08767 -9.94082,-0.39721 -9.94082,-0.39721c0,0 5.99001,-5.21236 7.09951,-8.46687c1.10259,-3.23424 -0.46315,-10.9998 -0.46315,-10.9998z" fill="#fff152" stroke="none" stroke-width="0" stroke-linecap="round"/><path d="M341.53777,100.27827c0,0 -2.23382,6.87353 -1.66392,9.76094c0.56636,2.86946 5.07275,7.51001 5.07275,7.51001c0,0 -6.77572,-0.88603 -9.18897,0.17992c-2.22261,0.98175 -4.7657,5.98401 -4.7657,5.98401c0,0 0.21805,-7.10959 -0.87148,-10.10423c-0.94847,-2.60692 -5.30141,-6.86225 -5.30141,-6.86225c0,0 6.83584,1.0821 9.63094,0.00069c2.7777,-1.07467 7.08779,-6.46909 7.08779,-6.46909z" fill="#fff152" stroke="none" stroke-width="0" stroke-linecap="round"/></g></g></svg>