<svg version="1.1" xmlns="http://www.w3.org/2000/svg" xmlns:xlink="http://www.w3.org/1999/xlink" width="173" height="173" viewBox="0,0,173,173"><g transform="translate(-153.5,-93.5)"><g stroke-miterlimit="10"><path d="M153.5,266.5v-173h173v173z" fill="none" stroke="none" stroke-width="0" stroke-linecap="butt"/><path d="M169,249.5c-4.22472,-4.65157 -10,-44.34131 -10,-70.75c0,-24.82687 7.5654,-61.90833 12.75,-68.5c5.51909,-7.01693 42.7918,-10.75 68.5,-10.75c25.62487,0 62.91123,4.45354 68.75,10c3.42037,3.24913 12.5,40.64152 12.5,66.75c0,25.19211 -2.99554,70.19968 -7.75,74.5c-3.09901,2.803 -44.87513,8.75 -70.5,8.75c-25.7082,0 -69.55266,-4.82805 -74.25,-10z" fill="#648aff" stroke="#000000" stroke-width="4" stroke-linecap="butt"/><path d="M227.64102,147.28032c0,13.27158 -10.70212,24.03032 -23.90385,24.03032c-13.20173,0 -23.90385,-10.75874 -23.90385,-24.03032c0,-13.27158 10.70212,-24.03032 23.90385,-24.03032c13.20173,0 23.90385,10.75874 23.90385,24.03032z" fill="#ffffff" stroke="#000000" stroke-width="4" stroke-linecap="butt"/><path d="M300.16667,147.59076c0,13.27158 -10.70211,24.03032 -23.90384,24.03032c-13.20173,0 -23.90385,-10.75874 -23.90385,-24.03032c0,-13.27158 10.70212,-24.03032 23.90385,-24.03032c13.20173,0 23.90384,10.75874 23.90384,24.03032z" fill="#ffffff" stroke="#000000" stroke-width="4" stroke-linecap="butt"/><path d="M214.5,144.25c0,4.05009 -3.28325,7.33333 -7.33333,7.33333c-4.05009,0 -7.33333,-3.28325 -7.33333,-7.33333c0,-4.05009 3.28325,-7.33333 7.33333,-7.33333c4.05009,0 7.33333,3.28325 7.33333,7.33333z" fill="#000000" stroke="#000000" stroke-width="4" stroke-linecap="butt"/><path d="M280.16667,144.91667c0,4.05009 -3.28325,7.33334 -7.33334,7.33334c-4.05009,0 -7.33334,-3.28324 -7.33334,-7.33334c0,-4.05009 3.28325,-7.33334 7.33334,-7.33334c4.05009,0 7.33334,3.28324 7.33334,7.33334z" fill="#000000" stroke="#000000" stroke-width="4" stroke-linecap="butt"/><path d="M187.7786,112.10469c-0.96677,-1.44257 2.87501,-5.11185 5.0061,-7.06175c1.9061,-1.74404 6.18471,-4.30199 7.35919,-3.94205c3.19465,0.97906 33.47945,26.88834 37.78781,31.17901c1.13813,1.13345 -1.94138,4.87791 -3.97255,6.73639c-2.03118,1.85848 -6.62944,5.46247 -7.67976,4.85568c-0.32291,-0.18655 -0.78741,-0.53746 -1.43344,-0.95859c-8.26424,-5.38721 -35.37864,-28.28888 -37.06734,-30.8087z" fill="#000000" stroke="#000000" stroke-width="4" stroke-linecap="butt"/><path d="M256.95642,142.9134c-0.64603,0.42112 -1.11053,0.77203 -1.43344,0.95858c-1.05032,0.60679 -5.64859,-2.9972 -7.67977,-4.85568c-2.03117,-1.85848 -5.11068,-5.60294 -3.97255,-6.73639c4.30836,-4.29068 34.59316,-30.19995 37.78781,-31.17901c1.17448,-0.35994 5.45309,2.198 7.3592,3.94205c2.13109,1.9499 5.97286,5.61918 5.0061,7.06175c-1.6887,2.51982 -28.8031,25.42149 -37.06734,30.80871z" fill="#000000" stroke="#000000" stroke-width="4" stroke-linecap="butt"/><path d="M184.40244,170.56447c0,0 -3.45743,-2.20469 -4.53123,-3.28773c-1.20211,-1.21245 -2.34002,-3.64268 -2.34002,-3.64268" fill="none" stroke="#000000" stroke-width="4" stroke-linecap="round"/></g></g></svg>