<svg version="1.1" xmlns="http://www.w3.org/2000/svg" xmlns:xlink="http://www.w3.org/1999/xlink" width="173" height="173" viewBox="0,0,173,173"><g transform="translate(-153.5,-93.5)"><g stroke-miterlimit="10"><path d="M153.5,266.5v-173h173v173z" fill="none" stroke="none" stroke-width="0" stroke-linecap="butt"/><path d="M168.09774,249.60417c-4.26818,-4.60312 -9.59774,-44.37422 -9.59774,-70.50781c0,-24.56826 7.13809,-60.76866 12.37604,-67.29167c5.57586,-6.94384 43.23205,-10.63802 69.20473,-10.63802c25.8885,0 63.55846,4.40715 69.45729,9.89583c3.45556,3.21529 12.6286,40.21817 12.6286,66.05469c0,24.92969 -3.02636,69.46843 -7.82973,73.72396c-3.13089,2.77381 -45.33682,8.65886 -71.22531,8.65886c-25.97269,0 -70.26823,-4.77776 -75.01388,-9.89583z" fill="#ff9b55" stroke="#000000" stroke-width="4" stroke-linecap="butt"/><path d="M232.29312,161.26423c0,11.66767 -11.93979,16.35357 -26.25287,16.35357c-14.31307,0 -25.57934,-4.68588 -25.57934,-16.35357c0,-11.66767 11.60302,-10.07381 25.91611,-10.07381c14.31307,0 25.91612,-1.59388 25.91612,10.07381z" fill="#ffffff" stroke="#000000" stroke-width="4" stroke-linecap="butt"/><path d="M203.63423,158.09604c0,3.69743 -4.01844,6.69479 -8.97545,6.69479c-4.95702,0 -8.97546,-2.99735 -8.97546,-6.69479c0,-3.69743 4.01844,-6.69479 8.97546,-6.69479c4.95702,0 8.97545,2.99735 8.97545,6.69479z" fill="#000000" stroke="#000000" stroke-width="4" stroke-linecap="butt"/><path d="M299.19549,162.20379c0,11.02698 -11.60302,15.66647 -25.9161,15.66647c-14.31306,0 -25.91612,-4.63948 -25.91612,-15.66647c0,-11.02698 12.61334,-9.93357 26.9264,-9.93357c14.31306,0 24.90581,-1.09341 24.90581,9.93357z" fill="#ffffff" stroke="#000000" stroke-width="4" stroke-linecap="butt"/><path d="M269.41509,159.56846c0,3.51607 -4.01844,6.3664 -8.97546,6.3664c-4.95702,0 -8.97546,-2.85033 -8.97546,-6.3664c0,-3.51607 4.01845,-6.3664 8.97546,-6.3664c4.95702,0 8.97546,2.85034 8.97546,6.3664z" fill="#000000" stroke="#000000" stroke-width="4" stroke-linecap="butt"/><path d="M231.33594,147.38184c0,0 1.54535,4.0698 1.17455,5.04402c-0.39353,1.03397 -4.99695,-0.24063 -4.99695,-0.24063" fill="none" stroke="#000000" stroke-width="4" stroke-linecap="round"/><path d="" fill="#ffffff" stroke="none" stroke-width="0" stroke-linecap="butt"/><path d="" fill="none" stroke="#000000" stroke-width="4" stroke-linecap="round"/><path d="" fill="none" stroke="#000000" stroke-width="4" stroke-linecap="round"/><path d="" fill="none" stroke="#000000" stroke-width="4" stroke-linecap="round"/><path d="" fill="none" stroke="#000000" stroke-width="4" stroke-linecap="round"/></g></g></svg>