<svg version="1.1" xmlns="http://www.w3.org/2000/svg" xmlns:xlink="http://www.w3.org/1999/xlink" width="220.44661" height="173" viewBox="0,0,220.44661,173"><g transform="translate(-124.49999,-93.5)"><g stroke-miterlimit="10"><path d="M153.5,266.5v-173h173v173z" fill="none" stroke="none" stroke-width="0" stroke-linecap="butt"/><path d="M169,249.5c-4.22472,-4.65157 -9.5,-44.84131 -9.5,-71.25c0,-24.82687 7.0654,-61.40833 12.25,-68c5.51909,-7.01693 42.7918,-10.75 68.5,-10.75c25.62487,0 62.91123,4.45354 68.75,10c3.42037,3.24913 12.5,40.64152 12.5,66.75c0,25.19211 -2.99554,70.19968 -7.75,74.5c-3.09901,2.803 -44.87513,8.75 -70.5,8.75c-25.7082,0 -69.55266,-4.82805 -74.25,-10z" fill="#ff9b55" stroke="#000000" stroke-width="4" stroke-linecap="butt"/><path d="M232.54166,155c0,11.78477 -4.4035,19.62121 -13.82909,23.76739c-2.958,1.30119 -9.68903,-1.73266 -13.0731,-1.73266c-4.19303,0 -8.15108,3.40054 -11.64597,1.45103c-8.31357,-4.63746 -12.75623,-12.58507 -12.75623,-23.48576c0,-15.48315 11.48488,-28.03473 25.6522,-28.03473c14.16732,0 25.6522,12.55157 25.6522,28.03473z" fill="#ffffff" stroke="#000000" stroke-width="4" stroke-linecap="butt"/><path d="M298.76274,155.14909c0,11.94333 -5.16878,19.38149 -14.89051,23.3441c-2.80367,1.14279 -7.09048,-3.4822 -10.26168,-3.4822c-3.70763,0 -8.73154,4.39567 -11.91396,2.85835c-8.97803,-4.33695 -14.23824,-11.35955 -14.23824,-22.72025c0,-15.3877 11.48488,-27.8619 25.6522,-27.8619c14.16732,0 25.65219,12.4742 25.65219,27.8619z" fill="#ffffff" stroke="#000000" stroke-width="4" stroke-linecap="butt"/><path d="M230.76811,150.55072c0,10.98168 -8.90239,19.88407 -19.88404,19.88407c-10.98168,0 -19.88406,-8.90239 -19.88406,-19.88407c0,-10.98168 8.90239,-19.88406 19.88406,-19.88406c10.98168,0 19.88404,8.90239 19.88404,19.88406z" fill="#000000" stroke="#000000" stroke-width="4" stroke-linecap="butt"/><path d="M289.6413,150.82427c0,10.63649 -8.62257,19.25906 -19.25906,19.25906c-10.63649,0 -19.25906,-8.62257 -19.25906,-19.25906c0,-10.63649 8.62257,-19.25906 19.25906,-19.25906c10.63649,0 19.25906,8.62257 19.25906,19.25906z" fill="#000000" stroke="#000000" stroke-width="4" stroke-linecap="butt"/><path d="M232.875,142.25c0,2.76143 -3.79584,5 -8.47826,5c-4.68242,0 -8.47826,-2.23857 -8.47826,-5c0,-2.76143 3.79584,-5 8.47826,-5c4.68242,0 8.47826,2.23857 8.47826,5z" fill="#ffffff" stroke="none" stroke-width="0" stroke-linecap="butt"/><path d="M291.875,142c0,2.34721 -3.80558,4.25 -8.5,4.25c-4.69442,0 -8.5,-1.90279 -8.5,-4.25c0,-2.34721 3.80558,-4.25 8.5,-4.25c4.69442,0 8.5,1.90279 8.5,4.25z" fill="#ffffff" stroke="none" stroke-width="0" stroke-linecap="butt"/><path d="M263.625,165.125c0,2.27817 -2.01472,4.125 -4.5,4.125c-2.48528,0 -4.5,-1.84683 -4.5,-4.125c0,-2.27817 2.01472,-4.125 4.5,-4.125c2.48528,0 4.5,1.84683 4.5,4.125z" fill="#ffffff" stroke="none" stroke-width="0" stroke-linecap="butt"/><path d="M203.675,165.5c0,2.20914 -1.96995,4 -4.4,4c-2.43005,0 -4.4,-1.79086 -4.4,-4c0,-2.20914 1.96995,-4 4.4,-4c2.43005,0 4.4,1.79086 4.4,4z" fill="#ffffff" stroke="none" stroke-width="0" stroke-linecap="butt"/><path d="M131.13637,147.66667c0,0 4.39656,7.03038 7.35519,8.65763c2.94023,1.61713 10.34177,1.0757 10.34177,1.0757c0,0 -5.77334,5.30403 -6.61495,8.21143c-0.77513,2.67772 1.74828,8.6007 1.74828,8.6007c0,0 -6.08991,-5.43215 -9.52585,-6.68158c-2.99107,-1.08767 -9.94082,-0.39721 -9.94082,-0.39721c0,0 5.99001,-5.21236 7.09951,-8.46687c1.10259,-3.23424 -0.46315,-10.9998 -0.46315,-10.9998z" fill="#fff152" stroke="none" stroke-width="0" stroke-linecap="round"/><path d="M341.53777,100.27827c0,0 -2.23382,6.87353 -1.66392,9.76094c0.56636,2.86946 5.07275,7.51001 5.07275,7.51001c0,0 -6.77572,-0.88603 -9.18897,0.17992c-2.22261,0.98175 -4.7657,5.98401 -4.7657,5.98401c0,0 0.21805,-7.10959 -0.87148,-10.10423c-0.94847,-2.60692 -5.30141,-6.86225 -5.30141,-6.86225c0,0 6.83584,1.0821 9.63094,0.00069c2.7777,-1.07467 7.08779,-6.46909 7.08779,-6.46909z" fill="#fff152" stroke="none" stroke-width="0" stroke-linecap="round"/></g></g></svg>