<svg version="1.1" xmlns="http://www.w3.org/2000/svg" xmlns:xlink="http://www.w3.org/1999/xlink" width="222.61325" height="173" viewBox="0,0,222.61325,173"><g transform="translate(-127.33335,-93.5)"><g stroke-miterlimit="10"><path d="M153.5,266.5v-173h173v173z" fill="none" stroke="none" stroke-width="0" stroke-linecap="butt"/><path d="M169,249.5c-4.22472,-4.65157 -9.5,-44.84131 -9.5,-71.25c0,-24.82687 7.0654,-61.40833 12.25,-68c5.51909,-7.01693 42.7918,-10.75 68.5,-10.75c25.62487,0 62.91123,4.45354 68.75,10c3.42037,3.24913 12.5,40.64152 12.5,66.75c0,25.19211 -2.99554,70.19968 -7.75,74.5c-3.09901,2.803 -44.87513,8.75 -70.5,8.75c-25.7082,0 -69.55266,-4.82805 -74.25,-10z" fill="#ff5468" stroke="#000000" stroke-width="4" stroke-linecap="butt"/><path d="M190.03477,143.63889l-2.1707,-9.70797" fill="none" stroke="#000000" stroke-width="4" stroke-linecap="round"/><path d="M178.99377,146.06363l2.44494,7.68581c0,0 12.43805,-19.04053 25.06065,-18.72855c16.25331,0.40171 25.93243,20.2806 25.93243,20.2806" fill="none" stroke="#000000" stroke-width="4" stroke-linecap="round"/><path d="M289.19079,143.23889l2.1707,-9.70797" fill="none" stroke="#000000" stroke-width="4" stroke-linecap="round"/><path d="M246.79377,154.90149c0,0 9.67912,-19.87889 25.93243,-20.2806c12.6226,-0.31198 25.06065,18.72855 25.06065,18.72855l2.44494,-7.68581" fill="none" stroke="#000000" stroke-width="4" stroke-linecap="round"/><path d="M132.65154,149.66667c0,0 3.52327,5.63393 5.89423,6.93796c2.35622,1.29592 8.28759,0.86203 8.28759,0.86203c0,0 -4.62658,4.25049 -5.30102,6.58039c-0.62117,2.14584 1.40102,6.89234 1.40102,6.89234c0,0 -4.88027,-4.35316 -7.63373,-5.35441c-2.39696,-0.87162 -7.96627,-0.31831 -7.96627,-0.31831c0,0 4.80022,-4.17703 5.68934,-6.7851c0.88358,-2.59182 -0.37116,-8.81491 -0.37116,-8.81491z" fill="#fff152" stroke="none" stroke-width="0" stroke-linecap="round"/><path d="M345.69098,98.77827c0,0 -2.78874,8.58102 -2.07727,12.18571c0.70705,3.58228 6.3329,9.37561 6.3329,9.37561c0,0 -8.45891,-1.10614 -11.47165,0.22462c-2.77474,1.22563 -5.94957,7.47053 -5.94957,7.47053c0,0 0.27222,-8.87572 -1.08797,-12.61428c-1.18409,-3.25452 -6.61836,-8.56694 -6.61836,-8.56694c0,0 8.53397,1.35091 12.02342,0.00086c3.46772,-1.34164 8.84851,-8.07611 8.84851,-8.07611z" fill="#fff152" stroke="none" stroke-width="0" stroke-linecap="round"/></g></g></svg>