<svg version="1.1" xmlns="http://www.w3.org/2000/svg" xmlns:xlink="http://www.w3.org/1999/xlink" width="178" height="173" viewBox="0,0,178,173"><g transform="translate(-151.5,-93.5)"><g stroke-miterlimit="10"><path d="M153.5,266.5v-173h173v173z" fill="none" stroke="none" stroke-width="0" stroke-linecap="butt"/><path d="M169,249.5c-4.22472,-4.65157 -9.5,-44.84131 -9.5,-71.25c0,-24.82687 7.0654,-61.40833 12.25,-68c5.51909,-7.01693 42.7918,-10.75 68.5,-10.75c25.62487,0 62.91123,4.45354 68.75,10c3.42037,3.24913 12.5,40.64152 12.5,66.75c0,25.19211 -2.99554,70.19968 -7.75,74.5c-3.09901,2.803 -44.87513,8.75 -70.5,8.75c-25.7082,0 -69.55266,-4.82805 -74.25,-10z" fill="#ff9b55" stroke="#000000" stroke-width="4" stroke-linecap="butt"/><path d="M302.83333,129.24771c0,0 -18.15514,-1.60133 -26.67383,-1.72943c-8.02601,-0.12069 -23.04839,0.98173 -23.04839,0.98173" fill="none" stroke="#000000" stroke-width="6" stroke-linecap="round"/><path d="M252.77777,138.96784c0,0 16.55372,-1.09443 24.69785,-0.97196c8.4207,0.12663 25.02437,1.71967 25.02437,1.71967" fill="none" stroke="#000000" stroke-width="6" stroke-linecap="round"/><path d="M178.5,128.16667c0,0 16.64716,-0.75969 24.99763,-0.63412c8.86007,0.13323 26.72459,1.41189 26.72459,1.41189" fill="none" stroke="#000000" stroke-width="6" stroke-linecap="round"/><path d="M178.16667,139.05555c0,0 16.84404,-1.08505 25.31244,-0.95771c8.76231,0.13176 26.40978,1.73549 26.40978,1.73549" fill="none" stroke="#000000" stroke-width="6" stroke-linecap="round"/><path d="M158.3046,152.33333l-4.8046,-8.73563" fill="none" stroke="#ffb3b3" stroke-width="4" stroke-linecap="round"/><path d="M160.92529,139.66667l5.24138,7.86207" fill="none" stroke="#ffb3b3" stroke-width="4" stroke-linecap="round"/><path d="M314.83333,143.5977l4.8046,8.73564" fill="none" stroke="#ffb3b3" stroke-width="4" stroke-linecap="round"/><path d="M327.5,147.52873l-5.24138,-7.86207" fill="none" stroke="#ffb3b3" stroke-width="4" stroke-linecap="round"/></g></g></svg>