<svg version="1.1" xmlns="http://www.w3.org/2000/svg" xmlns:xlink="http://www.w3.org/1999/xlink" width="173" height="173" viewBox="0,0,173,173"><g transform="translate(-153.5,-93.5)"><g stroke-miterlimit="10"><path d="M153.5,266.5v-173h173v173z" fill="none" stroke="none" stroke-width="0" stroke-linecap="butt"/><path d="M169,249.5c-4.22472,-4.65157 -10,-44.34131 -10,-70.75c0,-24.82687 7.5654,-61.90833 12.75,-68.5c5.51909,-7.01693 42.7918,-10.75 68.5,-10.75c25.62487,0 62.91123,4.45354 68.75,10c3.42037,3.24913 12.5,40.64152 12.5,66.75c0,25.19211 -2.99554,70.19968 -7.75,74.5c-3.09901,2.803 -44.87513,8.75 -70.5,8.75c-25.7082,0 -69.55266,-4.82805 -74.25,-10z" fill="#648aff" stroke="#000000" stroke-width="4" stroke-linecap="butt"/><path d="M177.1288,140.2602c-0.75502,-0.83124 -0.75178,-5.82209 -0.27479,-8.57129c0.44227,-2.54906 2.316,-7.2041 3.51992,-7.64686c3.27474,-1.20432 45.11469,0.45226 51.45956,1.16343c1.67611,0.18786 1.5633,5.0348 1.09201,7.75112c-0.47129,2.71633 -1.92993,8.39132 -3.19156,8.56327c-0.38787,0.05287 -0.99943,0.064 -1.80653,0.1321c-10.32473,0.87118 -47.59291,-0.37983 -50.62396,-1.31748c0,0 -0.13229,-0.02765 -0.17465,-0.07429z" fill="#000000" stroke="#000000" stroke-width="4" stroke-linecap="butt"/><path d="M252.29118,141.39716c-0.80622,-0.07758 -1.41764,-0.09589 -1.80483,-0.15331c-1.25941,-0.18675 -2.64452,-5.87844 -3.08061,-8.60009c-0.43608,-2.72165 -0.48607,-7.56954 1.19249,-7.73771c6.35417,-0.63663 48.21609,-1.80188 51.47526,-0.5592c1.1982,0.45686 3.01162,5.13353 3.42086,7.68761c0.45754,2.85553 1.1807,8.12328 -0.56152,8.63966c-3.04324,0.90199 -40.32808,1.71539 -50.64165,0.72306z" fill="#000000" stroke="#000000" stroke-width="4" stroke-linecap="butt"/><path d="M184.40244,170.56447c0,0 -3.45743,-2.20469 -4.53123,-3.28773c-1.20211,-1.21245 -2.34002,-3.64268 -2.34002,-3.64268" fill="none" stroke="#000000" stroke-width="4" stroke-linecap="round"/><path d="M300.91667,155.97223c0,0 -15.99691,2.85181 -24.32963,2.9444c-8.33395,0.0926 -25.67037,-2.38885 -25.67037,-2.38885" fill="none" stroke="#000000" stroke-width="4" stroke-linecap="round"/><path d="M228.91667,156.52778c0,0 -17.33642,2.48145 -25.67037,2.38885c-8.33272,-0.09259 -24.32963,-2.9444 -24.32963,-2.9444" fill="none" stroke="#000000" stroke-width="4" stroke-linecap="round"/></g></g></svg>