<svg version="1.1" xmlns="http://www.w3.org/2000/svg" xmlns:xlink="http://www.w3.org/1999/xlink" width="173" height="173" viewBox="0,0,173,173"><g transform="translate(-153.5,-93.5)"><g stroke-miterlimit="10"><path d="M153.5,266.5v-173h173v173z" fill="none" stroke="none" stroke-width="0"/><path d="M169,249.5c-4.22472,-4.65157 -9.5,-44.84131 -9.5,-71.25c0,-24.82687 7.0654,-61.40833 12.25,-68c5.51909,-7.01693 42.7918,-10.75 68.5,-10.75c25.62487,0 62.91123,4.45354 68.75,10c3.42037,3.24913 12.5,40.64152 12.5,66.75c0,25.19211 -2.99554,70.19968 -7.75,74.5c-3.09901,2.803 -44.87513,8.75 -70.5,8.75c-25.7082,0 -69.55266,-4.82805 -74.25,-10z" fill="#ff9b55" stroke="#000000" stroke-width="4"/><path d="M232.54166,155c0,15.48315 -11.48488,28.03473 -25.6522,28.03473c-14.16732,0 -25.6522,-12.55157 -25.6522,-28.03473c0,-15.48315 11.48488,-28.03473 25.6522,-28.03473c14.16732,0 25.6522,12.55157 25.6522,28.03473z" fill="#ffffff" stroke="#000000" stroke-width="4"/><path d="M298.76274,155.14909c0,15.3877 -11.48487,27.8619 -25.65219,27.8619c-14.16732,0 -25.6522,-12.4742 -25.6522,-27.8619c0,-15.3877 11.48488,-27.8619 25.6522,-27.8619c14.16732,0 25.65219,12.4742 25.65219,27.8619z" fill="#ffffff" stroke="#000000" stroke-width="4"/><path d="M217.26811,164.46739c0,7.11568 -5.76839,12.88406 -12.88405,12.88406c-7.11568,0 -12.88406,-5.76839 -12.88406,-12.88406c0,-7.11568 5.76839,-12.88406 12.88406,-12.88406c7.11568,0 12.88405,5.76839 12.88405,12.88406z" fill="#000000" stroke="#000000" stroke-width="4"/><path d="M286.55796,144.19927c0,7.39182 -5.99224,13.38406 -13.38406,13.38406c-7.39182,0 -13.38406,-5.99224 -13.38406,-13.38406c0,-7.39182 5.99224,-13.38406 13.38406,-13.38406c7.39182,0 13.38406,5.99224 13.38406,13.38406z" fill="#000000" stroke="#000000" stroke-width="4"/></g></g></svg>