<svg version="1.1" xmlns="http://www.w3.org/2000/svg" xmlns:xlink="http://www.w3.org/1999/xlink" width="233.63992" height="173" viewBox="0,0,233.63992,173"><g transform="translate(-153.5,-93.5)"><g stroke-miterlimit="10"><path d="M153.5,266.5v-173h173v173z" fill="none" stroke="none" stroke-width="0" stroke-linecap="butt"/><path d="M167.78395,249.6875c-4.27687,-4.56436 -9.61729,-44.00054 -9.61729,-69.91406c0,-24.36137 7.15263,-60.25692 12.40124,-66.725c5.58722,-6.88537 43.32009,-10.54844 69.34568,-10.54844c25.94123,0 63.68791,4.37004 69.59876,9.8125c3.4626,3.18821 12.65432,39.87949 12.65432,65.49844c0,24.71976 -3.03252,68.88343 -7.84568,73.10313c-3.13727,2.75045 -45.42915,8.58594 -71.37037,8.58594c-26.02559,0 -70.41134,-4.73753 -75.16666,-9.8125z" fill="#ff9b55" stroke="#000000" stroke-width="4" stroke-linecap="butt"/><path d="M232.11008,162.09148c0,11.56942 -11.96411,16.21586 -26.30634,16.21586c-14.34223,0 -25.63144,-4.64642 -25.63144,-16.21586c0,-11.56942 11.62666,-9.98898 25.96889,-9.98898c14.34223,0 25.9689,-1.58046 25.9689,9.98898z" fill="#ffffff" stroke="#000000" stroke-width="4" stroke-linecap="butt"/><path d="M203.39282,158.94997c0,3.66629 -4.02663,6.63841 -8.99373,6.63841c-4.96711,0 -8.99374,-2.97211 -8.99374,-6.63841c0,-3.66629 4.02663,-6.63841 8.99374,-6.63841c4.96711,0 8.99373,2.97211 8.99373,6.63841z" fill="#000000" stroke="#000000" stroke-width="4" stroke-linecap="butt"/><path d="M299.1487,163.02313c0,10.93412 -11.62666,15.53454 -25.96888,15.53454c-14.34222,0 -25.9689,-4.60041 -25.9689,-15.53454c0,-10.93412 12.63902,-9.84992 26.98124,-9.84992c14.34222,0 24.95654,-1.0842 24.95654,9.84992z" fill="#ffffff" stroke="#000000" stroke-width="4" stroke-linecap="butt"/><path d="M269.30765,160.40999c0,3.48646 -4.02663,6.31279 -8.99374,6.31279c-4.96711,0 -8.99374,-2.82633 -8.99374,-6.31279c0,-3.48646 4.02664,-6.31279 8.99374,-6.31279c4.96711,0 8.99374,2.82634 8.99374,6.31279z" fill="#000000" stroke="#000000" stroke-width="4" stroke-linecap="butt"/><path d="M231.15094,148.32599c0,0 1.5485,4.03553 1.17694,5.00154c-0.39434,1.02526 -5.00713,-0.2386 -5.00713,-0.2386" fill="none" stroke="#000000" stroke-width="4" stroke-linecap="round"/><path d="M379,205.54167c0,5.34814 2.1486,20.14303 -3.27462,23.75358c-5.95405,3.96395 -9.74883,-1.68706 -14.47928,0.52314c-5.00245,2.33729 -6.43058,8.72328 -10.8711,8.72328c-14.01423,0 -6.625,-16.55481 -7.125,-22c-0.30171,-3.28574 -7.4761,-10.70136 -7.56419,-11.23949c-1.19284,-7.2867 3.7266,-9.51051 13.68919,-9.51051c5.83528,0 17.27539,-3.48274 23.63334,-6.88298c4.19688,-2.24449 7.06632,4.60416 8.26805,7.37473c3.35225,7.72856 -2.27639,5.30065 -2.27639,9.25824z" fill="#ffffff" stroke="none" stroke-width="0" stroke-linecap="butt"/><path d="M344.25,197.04167l21.25,2.5" fill="none" stroke="#000000" stroke-width="4" stroke-linecap="round"/><path d="M337.5,200.54167l22.75,10" fill="none" stroke="#000000" stroke-width="4" stroke-linecap="round"/><path d="M351.5,220.54167l-14.25,-13" fill="none" stroke="#000000" stroke-width="4" stroke-linecap="round"/><path d="M368,191.04167c0,0 6.23233,-7.22278 12.10606,1.02804c4.51331,10.26674 1.85148,13.25209 0.31918,13.46442c-2.32687,0.32243 8.1957,10.6666 3.48762,17.63635c-8.94585,12.52211 -22.11176,7.24517 -23.4889,7.31843c-1.39092,0.07399 0.48852,5.6795 -10.77395,8.48291c-9.77065,2.43207 -6.64999,-9.68015 -6.64999,-9.68015" fill="none" stroke="#000000" stroke-width="4" stroke-linecap="round"/></g></g></svg>