<svg version="1.1" xmlns="http://www.w3.org/2000/svg" xmlns:xlink="http://www.w3.org/1999/xlink" width="173" height="173" viewBox="0,0,173,173"><g transform="translate(-153.5,-93.5)"><g stroke-miterlimit="10"><path d="M153.5,266.5v-173h173v173z" fill="none" stroke="none" stroke-width="0" stroke-linecap="butt"/><path d="M169,249.5c-4.22472,-4.65157 -9.5,-44.84131 -9.5,-71.25c0,-24.82687 7.0654,-61.40833 12.25,-68c5.51909,-7.01693 42.7918,-10.75 68.5,-10.75c25.62487,0 62.91123,4.45354 68.75,10c3.42037,3.24913 12.5,40.64152 12.5,66.75c0,25.19211 -2.99554,70.19968 -7.75,74.5c-3.09901,2.803 -44.87513,8.75 -70.5,8.75c-25.7082,0 -69.55266,-4.82805 -74.25,-10z" fill="#ff5468" stroke="#000000" stroke-width="4" stroke-linecap="butt"/><path d="M231.89289,155.91897c0,14.86405 -11.02565,16.41376 -24.62649,16.41376c-13.60084,0 -24.6265,-1.54969 -24.6265,-16.41376c0,-14.86405 15.65545,-9.537 29.20984,-8.41376c10.505,0.87054 15.51313,1.6651 18.00633,2.14673c1.80276,0.34825 2.03683,0.02947 2.03683,6.26703z" fill="#ffffff" stroke="#000000" stroke-width="4" stroke-linecap="butt"/><path d="M191.87677,143.398l-5.70005,-5.34379" fill="none" stroke="#000000" stroke-width="4" stroke-linecap="round"/><path d="M181.54544,152.30432l-5.34379,-2.49377" fill="none" stroke="#000000" stroke-width="4" stroke-linecap="round"/><path d="M223.64761,155.13894c0,3.95544 -3.2065,7.16195 -7.16194,7.16195c-3.95544,0 -7.16196,-3.2065 -7.16196,-7.16195c0,-3.95544 3.20652,-7.16195 7.16196,-7.16195c3.95544,0 7.16194,3.2065 7.16194,7.16195z" fill="#000000" stroke="#000000" stroke-width="4" stroke-linecap="butt"/><path d="M272.58148,146.75546c13.42951,-2.15205 24.45984,-5.53364 24.45984,9.33041c0,14.86407 -9.27566,19.33042 -22.8765,19.33042c-13.60084,0 -26.37649,-4.46636 -26.37649,-19.33042c0,-5.22398 1.30208,-5.28637 3.45205,-6.30508c3.96747,-1.87989 11.22318,-1.40396 21.34111,-3.02533z" fill="#ffffff" stroke="#000000" stroke-width="4" stroke-linecap="butt"/><path d="M294.83783,136.88778l-5.70004,5.3438" fill="none" stroke="#000000" stroke-width="4" stroke-linecap="round"/><path d="M299.46911,151.13789l5.3438,-2.49377" fill="none" stroke="#000000" stroke-width="4" stroke-linecap="round"/><path d="M263.11223,148.31055c3.81737,0 6.91195,3.09458 6.91195,6.91195c0,3.81736 -3.09458,6.91195 -6.91195,6.91195c-3.81736,0 -6.91195,-3.09458 -6.91195,-6.91195c0,-3.81736 3.09458,-6.91195 6.91195,-6.91195z" fill="#000000" stroke="#000000" stroke-width="4" stroke-linecap="butt"/><path d="M223.70833,174.08333l-6,1.33333" fill="none" stroke="#000000" stroke-width="4" stroke-linecap="round"/></g></g></svg>