<svg version="1.1" xmlns="http://www.w3.org/2000/svg" xmlns:xlink="http://www.w3.org/1999/xlink" width="173" height="173" viewBox="0,0,173,173"><g transform="translate(-153.5,-93.5)"><g stroke-miterlimit="10"><path d="M153.5,266.5v-173h173v173z" fill="none" stroke="none" stroke-width="0" stroke-linecap="butt"/><path d="M167.19547,249.6875c-4.31165,-4.56435 -9.69547,-44.00054 -9.69547,-69.91406c0,-24.36137 7.21078,-60.25692 12.50206,-66.725c5.63265,-6.88536 43.67229,-10.54844 69.90947,-10.54844c26.15213,0 64.2057,4.37004 70.16461,9.8125c3.49075,3.18821 12.7572,39.87949 12.7572,65.49844c0,24.71976 -3.05718,68.88344 -7.90947,73.10313c-3.16278,2.75044 -45.79849,8.58594 -71.95062,8.58594c-26.23718,0 -70.98378,-4.73752 -75.77778,-9.8125z" fill="#ff5468" stroke="#000000" stroke-width="4" stroke-linecap="butt"/><path d="M231.89289,152.7523c0,14.86405 -11.82565,13.11376 -25.42649,13.11376c-13.60084,0 -23.8265,1.75031 -23.8265,-13.11376c0,-14.86405 11.22566,-11.51376 24.8265,-11.51376c13.60084,0 24.42649,-3.35031 24.42649,11.51376z" fill="#ffffff" stroke="#000000" stroke-width="4" stroke-linecap="butt"/><path d="M192.97677,140.76466l-5.70005,-5.34379" fill="none" stroke="#000000" stroke-width="4" stroke-linecap="round"/><path d="M182.64544,149.67098l-5.34379,-2.49377" fill="none" stroke="#000000" stroke-width="4" stroke-linecap="round"/><path d="M209.28094,149.46393c0,3.52742 -2.85953,6.38695 -6.38694,6.38695c-3.52742,0 -6.38696,-2.85953 -6.38696,-6.38695c0,-3.52742 2.85954,-6.38695 6.38696,-6.38695c3.52742,0 6.38694,2.85953 6.38694,6.38695z" fill="#000000" stroke="#000000" stroke-width="4" stroke-linecap="butt"/><path d="M227.46667,169.06667c0,0 -3.28391,1.20293 -5.28511,1.42181c-2.23876,0.24486 -7.51489,-0.02181 -7.51489,-0.02181" fill="none" stroke="#000000" stroke-width="4" stroke-linecap="round"/><g fill="none" stroke="#000000" stroke-width="4" stroke-linecap="round"><path d="M299.875,151.58333l-4,5.16666c0,0 -13.17979,2.95458 -20.21876,3.58532c-8.26371,0.74048 -26.28124,0.58135 -26.28124,0.58135"/><path d="M285.54167,157.08333l2.66667,-6.33334"/></g></g></g></svg>