<svg version="1.1" xmlns="http://www.w3.org/2000/svg" xmlns:xlink="http://www.w3.org/1999/xlink" width="173" height="173" viewBox="0,0,173,173"><g transform="translate(-153.5,-93.5)"><g stroke-miterlimit="10"><path d="M153.5,266.5v-173h173v173z" fill="none" stroke="none" stroke-width="0" stroke-linecap="butt"/><path d="M169,249.5c-4.22472,-4.65157 -9.5,-44.84131 -9.5,-71.25c0,-24.82687 7.0654,-61.40833 12.25,-68c5.51909,-7.01693 42.7918,-10.75 68.5,-10.75c25.62487,0 62.91123,4.45354 68.75,10c3.42037,3.24913 12.5,40.64152 12.5,66.75c0,25.19211 -2.99554,70.19968 -7.75,74.5c-3.09901,2.803 -44.87513,8.75 -70.5,8.75c-25.7082,0 -69.55266,-4.82805 -74.25,-10z" fill="#ff5468" stroke="#000000" stroke-width="4" stroke-linecap="butt"/><g stroke="#000000" stroke-width="4"><path d="M195.20861,166.25347l-5.24604,-8.45196" fill="none" stroke-linecap="round"/><path d="M199.89759,175.07026c0,4.185 -4.11028,7.57761 -9.18058,7.57761c-5.07029,0 -9.18057,-3.39261 -9.18057,-7.57761c0,-4.185 0.33938,-4.68414 0.33938,-4.68414c0,0 14.97272,-5.15239 16.61997,-3.85688c1.75491,1.38018 1.40181,6.3823 1.40181,8.54102z" fill="#63dbff" stroke-linecap="butt"/><path d="M231.125,155.06674l-48.6608,15.32412l-4.8392,-6.45226" fill="none" stroke-linecap="round"/></g><g fill="none" stroke="#000000" stroke-width="4" stroke-linecap="round"><path d="M289.78744,157.80152l-5.24605,8.45195"/><path d="M302.125,163.93861l-4.8392,6.45226l-48.6608,-15.32412"/></g></g></g></svg>