<svg version="1.1" xmlns="http://www.w3.org/2000/svg" xmlns:xlink="http://www.w3.org/1999/xlink" width="182" height="173" viewBox="0,0,182,173"><g transform="translate(-149.83333,-93.5)"><g stroke-miterlimit="10"><path d="M153.5,266.5v-173h173v173z" fill="none" stroke="none" stroke-width="0" stroke-linecap="butt"/><path d="M167.23457,249.625c-4.32903,-4.59343 -9.73457,-44.28079 -9.73457,-70.35938c0,-24.51653 7.23985,-60.64073 12.55247,-67.15c5.65536,-6.92922 43.84839,-10.61563 70.19136,-10.61563c26.25758,0 64.46459,4.39787 70.44753,9.875c3.50482,3.20852 12.80864,40.1335 12.80864,65.91562c0,24.87721 -3.0695,69.32218 -7.94136,73.56875c-3.17553,2.76796 -45.98316,8.64062 -72.24074,8.64062c-26.34297,0 -71.27001,-4.7677 -76.08333,-9.875z" fill="#ff5468" stroke="#000000" stroke-width="4" stroke-linecap="butt"/><g fill="none" stroke="#000000" stroke-linecap="round"><g stroke-width="5.5"><path d="M232.42944,150.86222l-50.8297,4.36399"/></g><g stroke-width="5.5"><path d="M233.15728,158.83155l-50.8297,4.36399"/></g><path d="M180.65003,155.18649l-2.49257,-7.56222" stroke-width="4"/><path d="M188.92403,153.61771l-2.11842,-7.8072" stroke-width="4"/></g><g fill="none" stroke="#000000" stroke-linecap="round"><g stroke-width="5.5"><path d="M298.54497,153.22449l-50.9456,-2.69217"/></g><g stroke-width="5.5"><path d="M246.73506,158.48801l50.9456,2.69217"/></g><path d="M302.09222,145.74403l-2.24285,7.64" stroke-width="4"/><path d="M291.52832,152.08785l1.86085,-7.87256" stroke-width="4"/></g><path d="M156.74839,171.58646l-4.91505,-8.49904" fill="none" stroke="#ffb3b3" stroke-width="4" stroke-linecap="round"/><path d="M159.42933,159.26285l5.36187,7.64914" fill="none" stroke="#ffb3b3" stroke-width="4" stroke-linecap="round"/><path d="M316.87549,163.08742l4.91505,8.49905" fill="none" stroke="#ffb3b3" stroke-width="4" stroke-linecap="round"/><path d="M324.47147,159.26284l5.36187,7.64914" fill="none" stroke="#ffb3b3" stroke-width="4" stroke-linecap="round"/><path d="M234.69541,157.55741l5.02804,8.33528" fill="none" stroke="#ffb3b3" stroke-width="4" stroke-linecap="round"/><path d="M247.95114,161.30829l-5.48513,-7.50176" fill="none" stroke="#ffb3b3" stroke-width="4" stroke-linecap="round"/></g></g></svg>