<svg version="1.1" xmlns="http://www.w3.org/2000/svg" xmlns:xlink="http://www.w3.org/1999/xlink" width="173" height="173" viewBox="0,0,173,173"><g transform="translate(-153.5,-93.5)"><g stroke-miterlimit="10"><path d="M153.5,266.5v-173h173v173z" fill="none" stroke="none" stroke-width="0" stroke-linecap="butt"/><path d="M170.49074,249.39583c-4.14648,-4.70002 -9.32407,-45.30841 -9.32407,-71.99219c0,-25.08548 6.93456,-62.048 12.02315,-68.70833c5.41688,-7.09002 41.99936,-10.86198 67.23148,-10.86198c25.15034,0 61.74621,4.49993 67.47685,10.10417c3.35703,3.28298 12.26852,41.06487 12.26852,67.44531c0,25.45453 -2.94007,70.93093 -7.60648,75.27604c-3.04162,2.8322 -44.04411,8.84115 -69.19444,8.84115c-25.23212,0 -68.26465,-4.87834 -72.875,-10.10417z" fill="#ff9b55" stroke="#000000" stroke-width="4" stroke-linecap="butt"/><path d="M231.79244,149.44878c0,0 -17.74028,2.34393 -24.78552,2.23569c-8.93931,-0.13736 -24.53392,-2.9935 -24.53392,-2.9935" fill="none" stroke="#000000" stroke-width="4" stroke-linecap="round"/><path d="M298.53318,149.02778c0,0 -15.5946,2.85614 -24.53392,2.9935c-7.04524,0.10825 -24.78552,-2.23569 -24.78552,-2.23569" fill="none" stroke="#000000" stroke-width="4" stroke-linecap="round"/></g></g></svg>