<svg version="1.1" xmlns="http://www.w3.org/2000/svg" xmlns:xlink="http://www.w3.org/1999/xlink" width="76" height="73.02986" viewBox="0,0,76,73.02986"><g transform="translate(-202,-143.48507)"><g stroke-miterlimit="10"><path d="M274.125,180.00003c0,17.85478 -15.27828,32.32895 -34.125,32.32895c-18.84672,0 -34.125,-14.47416 -34.125,-32.32895c0,-17.85478 15.27828,-32.32895 34.125,-32.32895c18.84672,0 34.125,14.47416 34.125,32.32895z" fill="#ff5252" stroke="#e63232" stroke-width="4" stroke-linecap="butt"/><path d="M227.1,167l0.4,8.60001" fill="none" stroke="#ffffff" stroke-width="4" stroke-linecap="round"/><path d="M252.5,166.60001l0.2,8.20001" fill="none" stroke="#ffffff" stroke-width="4" stroke-linecap="round"/><path d="M218.3,198.20003c0,0 -1.97753,-11.12936 7.89656,-14.51872c9.4981,-0.5948 12.51056,7.45018 14.10344,7.71878c1.77359,0.29907 4.82294,-9.37125 12.06291,-8.22164c10.90594,3.0967 9.13709,15.02158 9.13709,15.02158" fill="none" stroke="#ffffff" stroke-width="4" stroke-linecap="round"/><path d="M224.24664,162.6849l7.30673,6.83021" fill="none" stroke="#ffffff" stroke-width="4" stroke-linecap="round"/><path d="M256.50203,163.12585l-7.20406,6.34834" fill="none" stroke="#ffffff" stroke-width="4" stroke-linecap="round"/><path d="M202,216.51493v-73.02986h76v73.02986z" fill="none" stroke="none" stroke-width="0" stroke-linecap="butt"/></g></g></svg>