<svg version="1.1" xmlns="http://www.w3.org/2000/svg" xmlns:xlink="http://www.w3.org/1999/xlink" width="173.33334" height="173" viewBox="0,0,173.33334,173"><g transform="translate(-153.5,-93.5)"><g stroke-miterlimit="10"><path d="M153.5,266.5v-173h173v173z" fill="none" stroke="none" stroke-width="0" stroke-linecap="butt"/><path d="M169,249.5c-4.22472,-4.65157 -9.5,-44.84131 -9.5,-71.25c0,-24.82687 7.0654,-61.40833 12.25,-68c5.51909,-7.01693 42.7918,-10.75 68.5,-10.75c25.62487,0 62.91123,4.45354 68.75,10c3.42037,3.24913 12.5,40.64152 12.5,66.75c0,25.19211 -2.99554,70.19968 -7.75,74.5c-3.09901,2.803 -44.87513,8.75 -70.5,8.75c-25.7082,0 -69.55266,-4.82805 -74.25,-10z" fill="#ff5468" stroke="#000000" stroke-width="4" stroke-linecap="butt"/><g stroke="#000000" stroke-width="4"><path d="M231.89289,150.41897c0,14.86405 -11.02565,26.91376 -24.62649,26.91376c-13.60084,0 -24.6265,-12.04969 -24.6265,-26.91376c0,-14.86405 11.02566,-26.91376 24.6265,-26.91376c13.60084,0 24.62649,12.04969 24.62649,26.91376z" fill="#ffffff" stroke-linecap="butt"/><path d="M196.37677,126.23133l-5.70005,-5.34379" fill="none" stroke-linecap="round"/><path d="M186.04544,135.13765l-5.34379,-2.49377" fill="none" stroke-linecap="round"/></g><path d="M231.48094,148.34727c0,12.07865 -9.79164,21.87028 -21.87026,21.87028c-12.07865,0 -21.87031,-9.79164 -21.87031,-21.87028c0,-12.07865 9.79166,-21.87028 21.87031,-21.87028c12.07865,0 21.87026,9.79164 21.87026,21.87028z" fill="#000000" stroke="#000000" stroke-width="4" stroke-linecap="butt"/><g stroke="#000000" stroke-width="4"><path d="M272.41481,123.67212c13.60084,0 24.6265,12.0497 24.6265,26.91375c0,14.86407 -11.02566,26.91376 -24.6265,26.91376c-13.60084,0 -24.62649,-12.0497 -24.62649,-26.91376c0,-14.86407 11.02565,-26.91375 24.62649,-26.91375z" fill="#ffffff" stroke-linecap="butt"/><path d="M289.00449,121.05444l-5.70004,5.3438" fill="none" stroke-linecap="round"/><path d="M293.63577,135.30455l5.3438,-2.49377" fill="none" stroke-linecap="round"/></g><path d="M269.98721,126.81055c12.12467,0 21.95364,9.82897 21.95364,21.95362c0,12.12465 -9.82897,21.95362 -21.95364,21.95362c-12.12462,0 -21.95359,-9.82895 -21.95359,-21.95362c0,-12.12465 9.82892,-21.95362 21.95359,-21.95362z" fill="#000000" stroke="#000000" stroke-width="4" stroke-linecap="butt"/><path d="M213.20833,136.41667l5.33333,-11.16667l6.5,9.66667l-6,9.66667z" fill="#ffffff" stroke="#ffffff" stroke-width="4" stroke-linecap="round"/><path d="M274.875,137.25l5.33333,-11.16666l6.5,9.66666l-6,9.66667z" fill="#ffffff" stroke="#ffffff" stroke-width="4" stroke-linecap="round"/><path d="M198.04167,158.18067l1.95694,-4.09734l2.38502,3.54695l-2.20155,3.54695z" fill="#ffffff" stroke="#ffffff" stroke-width="4" stroke-linecap="round"/><path d="M256.375,161.18067l1.95693,-4.09733l2.38502,3.54694l-2.20155,3.54695z" fill="#ffffff" stroke="#ffffff" stroke-width="4" stroke-linecap="round"/><path d="M160.63793,178.33333l-4.8046,-8.73563" fill="none" stroke="#ffb3b3" stroke-width="4" stroke-linecap="round"/><path d="M168.5,173.52874l-5.24138,-7.86207" fill="none" stroke="#ffb3b3" stroke-width="4" stroke-linecap="round"/><path d="M316.97127,177.5l-4.8046,-8.73563" fill="none" stroke="#ffb3b3" stroke-width="4" stroke-linecap="round"/><path d="M324.83334,172.69541l-5.24138,-7.86207" fill="none" stroke="#ffb3b3" stroke-width="4" stroke-linecap="round"/></g></g></svg>