<svg version="1.1" xmlns="http://www.w3.org/2000/svg" xmlns:xlink="http://www.w3.org/1999/xlink" width="173" height="173" viewBox="0,0,173,173"><g transform="translate(-153.5,-93.5)"><g stroke-miterlimit="10"><path d="M153.5,266.5v-173h173v173z" fill="none" stroke="none" stroke-width="0" stroke-linecap="butt"/><path d="M158,181.42382c0,-23.85707 7.19624,-59.00957 12.47685,-65.34375c5.6213,-6.74283 43.58424,-10.33008 69.76852,-10.33008c26.0994,0 64.07625,4.27957 70.02315,9.60937c3.48371,3.12221 12.73148,39.05396 12.73148,64.14258c0,24.20804 -3.05101,67.45751 -7.89352,71.58984c-3.1564,2.69351 -45.70615,8.4082 -71.80556,8.4082c-26.18428,0 -70.84067,-4.63945 -75.625,-9.60938c-4.78433,-4.96993 -9.67592,-43.08968 -9.67592,-68.46678z" fill="#ff9b55" stroke="#000000" stroke-width="4" stroke-linecap="butt"/><path d="M232.39428,163.33702c0,10.53033 -12.71608,13.79596 -27.14576,13.79596c-14.42968,0 -25.10872,-3.26562 -25.10872,-13.79596c0,-10.53033 11.69756,-10.05533 26.12724,-10.05533c14.42968,0 26.12724,-0.47501 26.12724,10.05533z" fill="#ffffff" stroke="#000000" stroke-width="4" stroke-linecap="butt"/><path d="M203.34252,158.10062c0,3.1492 -3.82318,5.70213 -8.53931,5.70213c-4.71614,0 -8.53932,-2.55293 -8.53932,-5.70213c0,-3.1492 3.82318,-3.83181 8.53932,-3.83181c4.71614,0 8.53931,0.68261 8.53931,3.83181z" fill="#000000" stroke="#000000" stroke-width="4" stroke-linecap="butt"/><path d="M231.96991,171.93457l-8.14815,5.04492" fill="none" stroke="#000000" stroke-width="4" stroke-linecap="round"/><path d="M250.04861,171.93457l4.58333,3.84375" fill="none" stroke="#000000" stroke-width="4" stroke-linecap="round"/><path d="M249.375,166.25c0,0 18.075,2.31977 25.25318,2.21264c9.10798,-0.13594 24.99683,-2.96264 24.99683,-2.96264" fill="none" stroke="#000000" stroke-width="4" stroke-linecap="round"/></g></g></svg>