<svg version="1.1" xmlns="http://www.w3.org/2000/svg" xmlns:xlink="http://www.w3.org/1999/xlink" width="76" height="73.02986" viewBox="0,0,76,73.02986"><g transform="translate(-202,-143.48507)"><g stroke-miterlimit="10"><path d="M274.125,180c0,17.85478 -15.27828,32.32895 -34.125,32.32895c-18.84672,0 -34.125,-14.47416 -34.125,-32.32895c0,-17.85478 15.27828,-32.32895 34.125,-32.32895c18.84672,0 34.125,14.47416 34.125,32.32895z" fill="#ff5252" stroke="#e63232" stroke-width="4" stroke-linecap="butt"/><path d="M202,216.51493v-73.02986h76v73.02986z" fill="none" stroke="none" stroke-width="0" stroke-linecap="butt"/><path d="M219.63173,163.81178l32.29033,34.95338c0,0 -12.21683,-2.74129 -19.26278,-9.35424c-7.04595,-6.61294 -4.51772,-11.84027 -4.51772,-11.84027l-11.74395,-11.49059z" fill="#ffffff" stroke="#ffffff" stroke-width="4" stroke-linecap="round"/><path d="M239.45,162.1c0,0 3.61323,2.4087 4.24873,3.62674c0.55299,1.05989 -0.64873,3.27326 -0.64873,3.27326" fill="none" stroke="#ffffff" stroke-width="3" stroke-linecap="round"/><path d="M246.65,159.5c0,0 0.68399,3.05983 1.59077,3.74899c0.71269,0.54164 3.40923,0.05101 3.40923,0.05101" fill="none" stroke="#ffffff" stroke-width="3" stroke-linecap="round"/><path d="M247.05,171.6c0,0 0.90073,-2.76691 2.02,-3.14c1.07928,-0.35976 4.58,0.94 4.58,0.94" fill="none" stroke="#ffffff" stroke-width="3" stroke-linecap="round"/><path d="M255.46423,174.72999c0,0 1.46949,2.40784 1.51056,3.29933c0.03573,0.77575 -1.27795,1.75084 -1.27795,1.75084" fill="none" stroke="#ffffff" stroke-width="2.5" stroke-linecap="round"/><path d="M260.41748,175.1686c0,0 -0.43439,1.98982 -0.08877,2.64397c0.27164,0.51413 1.99452,0.96303 1.99452,0.96303" fill="none" stroke="#ffffff" stroke-width="2.5" stroke-linecap="round"/><path d="M257.34185,182.40654c0,0 1.28785,-1.38358 2.04933,-1.29708c0.73429,0.08341 2.44097,1.80715 2.44097,1.80715" fill="none" stroke="#ffffff" stroke-width="2.5" stroke-linecap="round"/></g></g></svg>