<svg version="1.1" xmlns="http://www.w3.org/2000/svg" xmlns:xlink="http://www.w3.org/1999/xlink" width="173" height="173" viewBox="0,0,173,173"><g transform="translate(-153.5,-93.5)"><g stroke-miterlimit="10"><path d="M153.5,266.5v-173h173v173z" fill="none" stroke="none" stroke-width="0" stroke-linecap="butt"/><path d="M169,249.5c-4.22472,-4.65157 -9.5,-44.84131 -9.5,-71.25c0,-24.82687 7.0654,-61.40833 12.25,-68c5.51909,-7.01693 42.7918,-10.75 68.5,-10.75c25.62487,0 62.91123,4.45354 68.75,10c3.42037,3.24913 12.5,40.64152 12.5,66.75c0,25.19211 -2.99554,70.19968 -7.75,74.5c-3.09901,2.803 -44.87513,8.75 -70.5,8.75c-25.7082,0 -69.55266,-4.82805 -74.25,-10z" fill="#ff5468" stroke="#000000" stroke-width="4" stroke-linecap="butt"/><path d="M223.70833,174.08333l-6,1.33333" fill="none" stroke="#000000" stroke-width="4" stroke-linecap="round"/><g fill="none" stroke="#000000" stroke-width="4" stroke-linecap="round"><path d="M229.70833,169.91667c0,0 -18.01752,0.15912 -26.28124,-0.58135c-7.03897,-0.63073 -20.21876,-3.58531 -20.21876,-3.58531l-4,-5.16666"/><path d="M193.54167,166.08334l-2.66667,-6.33334"/></g><g fill="none" stroke="#000000" stroke-width="4" stroke-linecap="round"><path d="M299.875,160.25l-4,5.16666c0,0 -13.17979,2.95458 -20.21876,3.58532c-8.26371,0.74048 -26.28124,0.58135 -26.28124,0.58135"/><path d="M285.54167,165.75l2.66667,-6.33334"/></g></g></g></svg>