<svg version="1.1" xmlns="http://www.w3.org/2000/svg" xmlns:xlink="http://www.w3.org/1999/xlink" width="76" height="73.02986" viewBox="0,0,76,73.02986"><g transform="translate(-202,-143.48507)"><g stroke-miterlimit="10"><path d="M274.125,180c0,17.85478 -15.27828,32.32895 -34.125,32.32895c-18.84672,0 -34.125,-14.47416 -34.125,-32.32895c0,-17.85478 15.27828,-32.32895 34.125,-32.32895c18.84672,0 34.125,14.47416 34.125,32.32895z" fill="#51ff74" stroke="#38df1d" stroke-width="4" stroke-linecap="butt"/><path d="M202,216.51493v-73.02986h76v73.02986z" fill="none" stroke="none" stroke-width="0" stroke-linecap="butt"/><path d="M218.26995,179.72191c-1.8098,-7.9737 2.9298,-17.07147 9.8,-17.65376c9.31355,-0.78938 12.2,12.33636 12.2,12.33636c0,0 3.42528,-13.50259 12.3,-12.01732c7.98971,1.33715 9.79691,8.96938 7.8,17.01567c-1.42237,5.73126 -19,21.16324 -19,21.16324c0,0 -21.2902,-12.8705 -23.1,-20.8442z" fill="#ffffff" stroke="#ffffff" stroke-width="4" stroke-linecap="round"/></g></g></svg>