<svg version="1.1" xmlns="http://www.w3.org/2000/svg" xmlns:xlink="http://www.w3.org/1999/xlink" width="76" height="73.02986" viewBox="0,0,76,73.02986"><g transform="translate(-202,-143.48507)"><g stroke-miterlimit="10"><path d="M274.125,180c0,17.85478 -15.27828,32.32895 -34.125,32.32895c-18.84672,0 -34.125,-14.47416 -34.125,-32.32895c0,-17.85478 15.27828,-32.32895 34.125,-32.32895c18.84672,0 34.125,14.47416 34.125,32.32895z" fill="#f0ff52" stroke="#eccf26" stroke-width="4"/><path d="M202,216.51493v-73.02986h76v73.02986z" fill="none" stroke="none" stroke-width="0"/><path d="M236.9,180c0,-1.71208 1.38792,-3.1 3.1,-3.1c1.71208,0 3.1,1.38792 3.1,3.1c0,1.71208 -1.38792,3.1 -3.1,3.1c-1.71208,0 -3.1,-1.38792 -3.1,-3.1z" fill="#ffffff" stroke="#ffffff" stroke-width="4"/><path d="M221.9,180c0,-1.71209 1.38791,-3.1 3.1,-3.1c1.71209,0 3.1,1.38791 3.1,3.1c0,1.71209 -1.38791,3.1 -3.1,3.1c-1.71209,0 -3.1,-1.38791 -3.1,-3.1z" fill="#ffffff" stroke="#ffffff" stroke-width="4"/><path d="M251.9,180c0,-1.71209 1.38791,-3.1 3.1,-3.1c1.71209,0 3.1,1.38791 3.1,3.1c0,1.71209 -1.38792,3.1 -3.1,3.1c-1.71209,0 -3.1,-1.38791 -3.1,-3.1z" fill="#ffffff" stroke="#ffffff" stroke-width="4"/></g></g></svg>