<svg version="1.1" xmlns="http://www.w3.org/2000/svg" xmlns:xlink="http://www.w3.org/1999/xlink" width="175" height="170" viewBox="0,0,175,170"><g transform="translate(-152.5,-96.5)"><g stroke-miterlimit="10"><path d="M152.5,266.5v-170h175v170z" fill="none" stroke="none" stroke-width="0" stroke-linecap="butt"/><path d="M168.17919,249.7948c-4.27356,-4.57091 -9.60983,-44.06372 -9.60983,-70.01445c0,-24.39634 7.14708,-60.34344 12.39162,-66.82081c5.58289,-6.89525 43.2865,-10.56359 69.29191,-10.56359c25.92111,0 63.63853,4.37631 69.5448,9.82659c3.45991,3.19279 12.64451,39.93676 12.64451,65.59249c0,24.75526 -3.03017,68.98234 -7.8396,73.20809c-3.13484,2.75439 -45.39392,8.59826 -71.31503,8.59826c-26.0054,0 -70.35674,-4.74432 -75.10838,-9.82658z" fill="#ff5468" stroke="#000000" stroke-width="4" stroke-linecap="butt"/><path d="M235.17103,153.89193c0,2.82706 -1.47941,4.18248 -9.06082,4.73426c-5.22714,0.38043 -11.8562,-8.84606 -19.65592,-8.84606c-7.75285,0 -15.88741,10.5133 -21.06146,9.53004c-8.56568,-1.6278 -7.99248,-2.57491 -7.99248,-5.41823c0,-5.53155 13.13241,-13.21577 29.08534,-13.21577c15.95293,0 28.68533,7.68421 28.68533,13.21577z" fill="#ffffff" stroke="#000000" stroke-width="4" stroke-linecap="butt"/><path d="M192.11284,142.69067l-6.6858,-1.98865" fill="none" stroke="#000000" stroke-width="4" stroke-linecap="round"/><path d="M181.17633,146.71639l-6.23091,-1.15063" fill="none" stroke="#000000" stroke-width="4" stroke-linecap="round"/><path d="M229.23081,149.01504c0,1.37682 -1.14896,2.49296 -2.56627,2.49296c-1.41732,0 -2.56628,-1.11613 -2.56628,-2.49296c0,-1.37682 1.14896,-2.49295 2.56628,-2.49295c1.41732,0 2.56627,1.11613 2.56627,2.49295z" fill="#000000" stroke="#000000" stroke-width="4" stroke-linecap="butt"/><path d="M243.94543,153.89194c0,-5.53156 12.7324,-13.21577 28.68533,-13.21577c15.95293,0 29.08534,7.68422 29.08534,13.21577c0,2.84332 0.5732,3.79043 -7.99248,5.41823c-5.17405,0.98326 -13.30861,-9.53004 -21.06146,-9.53004c-7.79972,0 -14.42878,9.22649 -19.65592,8.84606c-7.58141,-0.55178 -9.06082,-1.9072 -9.06082,-4.73426z" fill="#ffffff" stroke="#000000" stroke-width="4" stroke-linecap="butt"/><path d="M293.68941,140.70202l-6.6858,1.98865" fill="none" stroke="#000000" stroke-width="4" stroke-linecap="round"/><path d="M297.94012,146.71639l6.23091,-1.15063" fill="none" stroke="#000000" stroke-width="4" stroke-linecap="round"/><path d="M293.45191,145.92209c1.41732,0 2.56628,1.11613 2.56628,2.49295c0,1.37683 -1.14896,2.49296 -2.56628,2.49296c-1.41731,0 -2.56627,-1.11614 -2.56627,-2.49296c0,-1.37682 1.14895,-2.49295 2.56627,-2.49295z" fill="#000000" stroke="#000000" stroke-width="4" stroke-linecap="butt"/></g></g></svg>