<svg version="1.1" xmlns="http://www.w3.org/2000/svg" xmlns:xlink="http://www.w3.org/1999/xlink" width="178" height="173" viewBox="0,0,178,173"><g transform="translate(-151.5,-93.5)"><g stroke-miterlimit="10"><path d="M153.5,266.5v-173h173v173z" fill="none" stroke="none" stroke-width="0" stroke-linecap="butt"/><path d="M169,249.5c-4.22472,-4.65157 -10,-44.34131 -10,-70.75c0,-24.82687 7.5654,-61.90833 12.75,-68.5c5.51909,-7.01693 42.7918,-10.75 68.5,-10.75c25.62487,0 62.91123,4.45354 68.75,10c3.42037,3.24913 12.5,40.64152 12.5,66.75c0,25.19211 -2.99554,70.19968 -7.75,74.5c-3.09901,2.803 -44.87513,8.75 -70.5,8.75c-25.7082,0 -69.55266,-4.82805 -74.25,-10z" fill="#648aff" stroke="#000000" stroke-width="4" stroke-linecap="butt"/><path d="M178.17757,127.51934c-1.53296,-0.81589 0.12349,-5.86357 1.08269,-8.5882c0.85792,-2.43698 3.42382,-6.71083 4.6292,-6.94751c3.2787,-0.64379 42.20446,7.91452 48.0274,9.6653c1.53823,0.46249 0.58936,5.21686 -0.32486,7.81374c-0.91423,2.59689 -3.2685,7.94386 -4.48086,7.90432c-0.37273,-0.01216 -0.94783,-0.10244 -1.71612,-0.169c-9.82826,-0.85145 -44.53975,-8.25349 -47.21745,-9.67866z" fill="#000000" stroke="#000000" stroke-width="4" stroke-linecap="butt"/><path d="M253.998,137.40649c-0.76869,0.0618 -1.34434,0.14853 -1.71713,0.15838c-1.21257,0.03205 -3.53376,-5.32939 -4.43192,-7.93188c-0.89815,-2.60249 -1.81761,-7.36262 -0.27655,-7.8156c5.83365,-1.71475 44.81157,-10.0323 48.08623,-9.36825c1.20389,0.24413 3.74332,4.53376 4.58617,6.97601c0.94234,2.7305 2.56755,7.78832 1.02958,8.59473c-2.68646,1.40859 -37.44304,8.59593 -47.27638,9.38662z" fill="#000000" stroke="#000000" stroke-width="4" stroke-linecap="butt"/><path d="M302.5,149.83334l-44.33333,-0.66666" fill="none" stroke="#000000" stroke-width="6" stroke-linecap="round"/><path d="M302.5,159.16667l-44.33333,-0.66667" fill="none" stroke="#000000" stroke-width="6" stroke-linecap="round"/><path d="M222.83333,149.83333l-44.33333,-0.66666" fill="none" stroke="#000000" stroke-width="6" stroke-linecap="round"/><path d="M222.83333,159.16667l-44.33333,-0.66667" fill="none" stroke="#000000" stroke-width="6" stroke-linecap="round"/><path d="M153.5,163.5977l4.8046,8.73563" fill="none" stroke="#ffb3b3" stroke-width="4" stroke-linecap="round"/><path d="M160.92529,159.66667l5.24138,7.86207" fill="none" stroke="#ffb3b3" stroke-width="4" stroke-linecap="round"/><path d="M314.83333,163.5977l4.8046,8.73564" fill="none" stroke="#ffb3b3" stroke-width="4" stroke-linecap="round"/><path d="M322.25862,159.66666l5.24138,7.86207" fill="none" stroke="#ffb3b3" stroke-width="4" stroke-linecap="round"/></g></g></svg>