<svg version="1.1" xmlns="http://www.w3.org/2000/svg" xmlns:xlink="http://www.w3.org/1999/xlink" width="76" height="73.02986" viewBox="0,0,76,73.02986"><g transform="translate(-202,-143.48507)"><g stroke-miterlimit="10"><path d="M274.125,180c0,17.85478 -15.27828,32.32895 -34.125,32.32895c-18.84672,0 -34.125,-14.47416 -34.125,-32.32895c0,-17.85478 15.27828,-32.32895 34.125,-32.32895c18.84672,0 34.125,14.47416 34.125,32.32895z" fill="#58ffd2" stroke="#1ee29b" stroke-width="4" stroke-linecap="butt"/><path d="M212.5,174.2c0,0 9.60404,-15.54791 12.79093,-15.61719c2.92374,-0.06356 5.60907,15.21719 5.60907,15.21719" fill="none" stroke="#ffffff" stroke-width="4" stroke-linecap="round"/><path d="M250.3,173.8c0,0 0.63863,-14.97278 3.44154,-14.76769c2.65583,0.19433 12.95846,15.96769 12.95846,15.96769" fill="none" stroke="#ffffff" stroke-width="4" stroke-linecap="round"/><path d="M257.5,185c0,0 1.92254,16.57799 -16.41221,17.10021c-19.53003,0.55627 -17.98779,-16.50021 -17.98779,-16.50021" fill="none" stroke="#ffffff" stroke-width="4" stroke-linecap="round"/><path d="M202,216.51493v-73.02986h76v73.02986z" fill="none" stroke="none" stroke-width="0" stroke-linecap="butt"/></g></g></svg>