<svg version="1.1" xmlns="http://www.w3.org/2000/svg" xmlns:xlink="http://www.w3.org/1999/xlink" width="173" height="173" viewBox="0,0,173,173"><g transform="translate(-153.5,-93.5)"><g stroke-miterlimit="10"><path d="M153.5,266.5v-173h173v173z" fill="none" stroke="none" stroke-width="0" stroke-linecap="butt"/><path d="M168.39483,249.59461c-4.26407,-4.60756 -10.09316,-43.9218 -10.09316,-70.08064c0,-24.59198 7.63588,-61.32262 12.86877,-67.85193c5.5705,-6.95054 43.19043,-10.64829 69.13811,-10.64829c25.86357,0 63.49727,4.41141 69.39043,9.90539c3.45223,3.21839 12.61644,40.25701 12.61644,66.11848c0,24.95377 -3.02345,69.53553 -7.82219,73.79516c-3.12787,2.77648 -45.29316,8.66722 -71.15674,8.66722c-25.94768,0 -70.20057,-4.78237 -74.94167,-9.90539z" fill="#648aff" stroke="#000000" stroke-width="4" stroke-linecap="butt"/><path d="M227.41388,147.52946c0,12.35869 -11.13826,18.34212 -24.46296,18.34212c-13.32471,0 -23.79008,-5.98343 -23.79008,-18.34212c0,-12.35869 11.13826,-8.79268 24.46296,-8.79268c13.32471,0 23.79009,-3.56601 23.79009,8.79268z" fill="#ffffff" stroke="#000000" stroke-width="4" stroke-linecap="butt"/><path d="M300.61514,147.02631c0,2.19231 -2.84614,6.91145 -1.93403,10.11771c0.68242,2.39885 3.38439,-1.16378 7.12041,1.19794c6.00375,4.18058 5.04601,10.22779 1.62648,13.52119c-3.05796,2.94516 -9.8956,4.11568 -13.12557,1.92347c-7.14921,-4.80134 -2.46682,-8.09389 -5.36929,-8.95177c-3.09446,-0.91461 -10.59085,0.35368 -12.44454,0.35368c-13.32471,0 -24.12652,-6.51601 -24.12652,-18.16223c0,-11.64621 10.12893,-8.64239 23.45364,-8.64239c13.32471,0 24.7994,-3.00382 24.7994,8.64239z" fill="#ffffff" stroke="#000000" stroke-width="4" stroke-linecap="butt"/><path d="M226.26224,145.34037c0,4.01177 -3.31384,7.26395 -7.40164,7.26395c-4.08782,0 -7.40164,-3.25219 -7.40164,-7.26395c0,-4.01177 3.31384,-7.26395 7.40164,-7.26395c4.08782,0 7.40164,3.25219 7.40164,7.26395z" fill="#000000" stroke="#000000" stroke-width="4" stroke-linecap="butt"/><path d="M298.59651,145.34037c0,4.01177 -3.31384,7.26396 -7.40165,7.26396c-4.08782,0 -7.40165,-3.25218 -7.40165,-7.26396c0,-4.01177 3.31384,-7.26396 7.40165,-7.26396c4.08782,0 7.40165,3.25218 7.40165,7.26396z" fill="#000000" stroke="#000000" stroke-width="4" stroke-linecap="butt"/><path d="M177.65182,130.0565c0.42772,-2.52448 2.23291,-7.1335 3.38993,-7.57079c3.14712,-1.18947 43.33722,0.49562 49.43137,1.20675c1.60988,0.18786 1.49601,4.98881 1.04023,7.67894c-0.4558,2.69013 -1.8634,8.30988 -3.07554,8.47889c-0.37265,0.05196 -0.96014,0.06234 -1.73552,0.12895c-9.91905,0.85203 -44.4204,-0.42649 -47.33101,-1.35846c-2.91061,-0.93197 -2.19768,-5.74183 -1.71946,-8.56428z" fill="#000000" stroke="#000000" stroke-width="4" stroke-linecap="butt"/><path d="M252.49757,140.32492c-0.77713,-0.04285 -1.36465,-0.03524 -1.73877,-0.07577c-1.21691,-0.13181 -2.80241,-5.70576 -3.34348,-8.38063c-0.54106,-2.67486 -0.80741,-7.47001 0.79571,-7.70704c6.06861,-0.89731 46.1856,-3.81162 49.36897,-2.71906c1.17034,0.40167 3.12112,4.95319 3.62886,7.46336c0.56768,2.80645 1.49891,7.98874 -0.14961,8.57303c-2.87958,1.0206 -38.62038,3.39417 -48.56169,2.84614z" fill="#000000" stroke="#000000" stroke-width="4" stroke-linecap="butt"/><path d="M184.78183,166.70082c0,0 -3.48964,-2.18383 -4.57344,-3.25662c-1.21331,-1.20098 -2.36181,-3.60822 -2.36181,-3.60822" fill="none" stroke="#000000" stroke-width="4" stroke-linecap="round"/><path d="M224.6221,160.07464l-7.82219,5.6956" fill="none" stroke="#000000" stroke-width="4" stroke-linecap="round"/></g></g></svg>