<svg version="1.1" xmlns="http://www.w3.org/2000/svg" xmlns:xlink="http://www.w3.org/1999/xlink" width="173.33334" height="173" viewBox="0,0,173.33334,173"><g transform="translate(-153.5,-93.5)"><g stroke-miterlimit="10"><path d="M153.5,266.5v-173h173v173z" fill="none" stroke="none" stroke-width="0" stroke-linecap="butt"/><path d="M169,249.5c-4.22472,-4.65157 -9.5,-44.84131 -9.5,-71.25c0,-24.82687 7.0654,-61.40833 12.25,-68c5.51909,-7.01693 42.7918,-10.75 68.5,-10.75c25.62487,0 62.91123,4.45354 68.75,10c3.42037,3.24913 12.5,40.64152 12.5,66.75c0,25.19211 -2.99554,70.19968 -7.75,74.5c-3.09901,2.803 -44.87513,8.75 -70.5,8.75c-25.7082,0 -69.55266,-4.82805 -74.25,-10z" fill="#ff5468" stroke="#000000" stroke-width="4" stroke-linecap="butt"/><g fill="none" stroke="#000000" stroke-linecap="round"><g stroke-width="5.5"><path d="M232.42944,149.19556l-50.8297,4.36399"/></g><g stroke-width="5.5"><path d="M233.15728,157.16489l-50.8297,4.36399"/></g><path d="M178.15746,145.95761l2.49257,7.56222" stroke-width="4"/><path d="M186.80561,144.14385l2.11842,7.8072" stroke-width="4"/></g><g fill="none" stroke="#000000" stroke-linecap="round"><g stroke-width="5.5"><path d="M247.59937,148.86566l50.9456,2.69217"/></g><g stroke-width="5.5"><path d="M297.68066,159.51352l-50.9456,-2.69217"/></g><path d="M302.09222,144.07737l-2.24285,7.64" stroke-width="4"/><path d="M291.52832,150.42119l1.86085,-7.87256" stroke-width="4"/></g><path d="M155.83333,160.5977l4.8046,8.73563" fill="none" stroke="#ffb3b3" stroke-width="4" stroke-linecap="round"/><path d="M168.5,164.52874l-5.24138,-7.86207" fill="none" stroke="#ffb3b3" stroke-width="4" stroke-linecap="round"/><path d="M316.97127,168.5l-4.8046,-8.73563" fill="none" stroke="#ffb3b3" stroke-width="4" stroke-linecap="round"/><path d="M324.83334,163.69541l-5.24138,-7.86207" fill="none" stroke="#ffb3b3" stroke-width="4" stroke-linecap="round"/></g></g></svg>