<svg version="1.1" xmlns="http://www.w3.org/2000/svg" xmlns:xlink="http://www.w3.org/1999/xlink" width="76" height="73.02986" viewBox="0,0,76,73.02986"><g transform="translate(-202,-143.48507)"><g stroke-miterlimit="10"><path d="M274.125,180c0,17.85478 -15.27828,32.32895 -34.125,32.32895c-18.84672,0 -34.125,-14.47416 -34.125,-32.32895c0,-17.85478 15.27828,-32.32895 34.125,-32.32895c18.84672,0 34.125,14.47416 34.125,32.32895z" fill="#ff6ea8" stroke="#da357a" stroke-width="4" stroke-linecap="butt"/><path d="M202,216.51493v-73.02986h76v73.02986z" fill="none" stroke="none" stroke-width="0" stroke-linecap="butt"/><path d="M234.27999,187.09164c0.55868,-6.39015 3.23914,-11.30744 7.91983,-11.19287c6.34535,0.15531 7.32395,9.22899 7.32395,9.22899c0,0 3.30991,-8.86169 9.19095,-7.20332c5.29457,1.49299 5.95056,6.77858 4.00802,12.0626c-1.38364,3.76373 -14.38951,12.88212 -14.38951,12.88212c0,0 -13.42074,-10.26123 -14.05325,-15.77753z" fill="#ffffff" stroke="#ffffff" stroke-width="4" stroke-linecap="round"/><path d="M219.05538,167.94851c-0.51265,-3.78828 0.40126,-6.99834 3.13749,-7.54515c3.70936,-0.74129 5.46744,4.40564 5.46744,4.40564c0,0 0.76293,-5.58572 4.39934,-5.39233c3.27378,0.17411 4.34785,3.16103 3.91101,6.48759c-0.31115,2.36946 -6.6774,9.37512 -6.6774,9.37512c0,0 -9.14722,-4.20675 -10.23788,-7.33088z" fill="#ffffff" stroke="#ffffff" stroke-width="4" stroke-linecap="round"/></g></g></svg>