<svg version="1.1" xmlns="http://www.w3.org/2000/svg" xmlns:xlink="http://www.w3.org/1999/xlink" width="173" height="173" viewBox="0,0,173,173"><g transform="translate(-153.5,-93.5)"><g stroke-miterlimit="10"><path d="M153.5,266.5v-173h173v173z" fill="none" stroke="none" stroke-width="0" stroke-linecap="butt"/><path d="M168.09774,249.60417c-4.26818,-4.60312 -9.59774,-44.37422 -9.59774,-70.50781c0,-24.56826 7.13809,-60.76866 12.37604,-67.29167c5.57586,-6.94384 43.23205,-10.63802 69.20473,-10.63802c25.8885,0 63.55846,4.40715 69.45729,9.89583c3.45556,3.21529 12.6286,40.21817 12.6286,66.05469c0,24.92969 -3.02636,69.46843 -7.82973,73.72396c-3.13089,2.77381 -45.33682,8.65886 -71.22531,8.65886c-25.97269,0 -70.26823,-4.77776 -75.01388,-9.89583z" fill="#ff9b55" stroke="#000000" stroke-width="4" stroke-linecap="butt"/><path d="" fill="#ffffff" stroke="none" stroke-width="0" stroke-linecap="butt"/><path d="" fill="none" stroke="#000000" stroke-width="4" stroke-linecap="round"/><path d="" fill="none" stroke="#000000" stroke-width="4" stroke-linecap="round"/><path d="" fill="none" stroke="#000000" stroke-width="4" stroke-linecap="round"/><path d="" fill="none" stroke="#000000" stroke-width="4" stroke-linecap="round"/><path d="M230.45911,167.11545c0,0 -17.74028,2.34393 -24.78552,2.23569c-8.93931,-0.13736 -24.53392,-2.9935 -24.53392,-2.9935" fill="none" stroke="#000000" stroke-width="4" stroke-linecap="round"/><path d="M297.19985,166.69445c0,0 -15.5946,2.85614 -24.53392,2.9935c-7.04524,0.10825 -24.78552,-2.23569 -24.78552,-2.23569" fill="none" stroke="#000000" stroke-width="4" stroke-linecap="round"/></g></g></svg>