<svg version="1.1" xmlns="http://www.w3.org/2000/svg" xmlns:xlink="http://www.w3.org/1999/xlink" width="182" height="173" viewBox="0,0,182,173"><g transform="translate(-149.5,-93.5)"><g stroke-miterlimit="10"><path d="M149.5,266.5v-166h182v166z" fill="none" stroke="none" stroke-width="0" stroke-linecap="butt"/><path d="M165.80636,250.18786c-4.4445,-4.46336 -10.52023,-42.54715 -10.52023,-67.88728c0,-23.82231 7.95898,-59.40337 13.41329,-65.72832c5.80621,-6.73301 45.01796,-10.31503 72.06358,-10.31503c26.95796,0 66.18407,4.27334 72.32659,9.59538c3.59831,3.11766 13.15029,38.99707 13.15029,64.04913c0,24.17278 -3.15138,67.35923 -8.15318,71.48555c-3.26023,2.68958 -47.20967,8.39595 -74.16763,8.39595c-27.04562,0 -73.17101,-4.6327 -78.11272,-9.59538z" fill="#648aff" stroke="#000000" stroke-width="4" stroke-linecap="butt"/><path d="M227.49807,152.10424c0,12.73458 -11.46928,21.52273 -25.35781,21.52273c-13.88853,0 -24.937,-8.78816 -24.937,-21.52273c0,-12.73458 10.83807,-9.24065 24.72659,-9.24065c13.88853,0 25.56821,-3.49393 25.56821,9.24065z" fill="#ffffff" stroke="#000000" stroke-width="4" stroke-linecap="butt"/><path d="M173.26671,153.6851c-1.79792,-0.59032 -0.65373,-5.59678 0.03554,-8.30708c0.6165,-2.42416 2.86633,-6.80455 4.16177,-7.17639c3.52366,-1.01144 47.53974,2.40343 54.18752,3.36218c1.75613,0.25327 1.35159,4.8945 0.69465,7.47771c-0.65695,2.58323 -2.52924,7.95944 -3.86956,8.06918c-0.41207,0.03374 -1.05751,0.01771 -1.91249,0.04775c-10.93715,0.38427 -50.15691,-2.44221 -53.29743,-3.47336z" fill="#000000" stroke="#000000" stroke-width="4" stroke-linecap="butt"/><path d="M252.56906,157.3439c-0.8907,-0.02115 -1.56241,0.00159 -1.99204,-0.02786c-1.39744,-0.09581 -3.4429,-5.45279 -4.17307,-8.0293c-0.73016,-2.5765 -1.2343,-7.21374 0.58957,-7.48528c6.90423,-1.02794 52.67073,-4.90079 56.35748,-3.92595c1.3554,0.35839 3.77613,4.71557 4.46134,7.13343c0.76608,2.70325 2.04685,7.69803 0.1855,8.30709c-3.25133,1.06387 -44.03464,4.29841 -55.42878,4.02789z" fill="#000000" stroke="#000000" stroke-width="4" stroke-linecap="butt"/><path d="M185.26261,174.41675c0,0 -4.90124,-2.55954 -6.44959,-3.85429c-1.73337,-1.44945 -3.45831,-4.43082 -3.45831,-4.43082" fill="none" stroke="#000000" stroke-width="4" stroke-linecap="round"/><path d="M224.47418,167.09191l-10.09942,7.29249" fill="none" stroke="#000000" stroke-width="4" stroke-linecap="round"/><path d="M266.1343,174.19248c0,0 -1.22222,-0.93641 -2.18596,-1.67478c-1.8818,-1.44174 -8.33427,-6.38533 -8.33427,-6.38533" fill="none" stroke="#000000" stroke-width="4" stroke-linecap="round"/><path d="M153.5,266.5v-173h173v173z" fill="none" stroke="none" stroke-width="0" stroke-linecap="butt"/><path d="M303.16667,161.22223c0,0 -15.99691,2.85181 -24.32963,2.9444c-8.33395,0.0926 -25.67037,-2.38885 -25.67037,-2.38885" fill="none" stroke="#000000" stroke-width="4" stroke-linecap="round"/><path d="M207.20289,153.4185c0,3.88621 -3.45405,7.03661 -7.71483,7.03661c-4.26079,0 -7.71483,-3.1504 -7.71483,-7.03661c0,-3.88621 3.45405,-7.03661 7.71483,-7.03661c4.26079,0 7.71483,3.1504 7.71483,7.03661z" fill="#000000" stroke="#000000" stroke-width="4" stroke-linecap="butt"/></g></g></svg>