<svg version="1.1" xmlns="http://www.w3.org/2000/svg" xmlns:xlink="http://www.w3.org/1999/xlink" width="182" height="173" viewBox="0,0,182,173"><g transform="translate(-149.83333,-93.5)"><g stroke-miterlimit="10"><path d="M153.5,266.5v-173h173v173z" fill="none" stroke="none" stroke-width="0" stroke-linecap="butt"/><path d="M167.34866,249.77083c-4.32184,-4.52559 -9.71839,-43.62686 -9.71839,-69.32031c0,-24.15448 7.22782,-59.74519 12.53161,-66.15833c5.64597,-6.82689 43.77552,-10.45885 70.07471,-10.45885c26.21395,0 64.35747,4.33292 70.33046,9.72917c3.499,3.16113 12.78736,39.54081 12.78736,64.94219c0,24.50982 -3.0644,68.29844 -7.92816,72.48229c-3.17025,2.72709 -45.90674,8.51302 -72.12069,8.51302c-26.29919,0 -71.15157,-4.69729 -75.9569,-9.72917z" fill="#ff9b55" stroke="#000000" stroke-width="4" stroke-linecap="butt"/><path d="M156.74838,166.58646l-4.91505,-8.49904" fill="none" stroke="#ffb3b3" stroke-width="4" stroke-linecap="round"/><path d="M159.42932,154.26285l5.36187,7.64914" fill="none" stroke="#ffb3b3" stroke-width="4" stroke-linecap="round"/><path d="M316.87548,158.08742l4.91505,8.49905" fill="none" stroke="#ffb3b3" stroke-width="4" stroke-linecap="round"/><path d="M329.83333,161.91198l-5.36187,-7.64914" fill="none" stroke="#ffb3b3" stroke-width="4" stroke-linecap="round"/><path d="M253.39336,146.31737l50.86526,0.72745" fill="none" stroke="#000000" stroke-width="6" stroke-linecap="round"/><path d="M253.39335,156.5017l50.86526,0.72746" fill="none" stroke="#000000" stroke-width="6" stroke-linecap="round"/><path d="M177.74905,145.34445l52.91124,0.75671" fill="none" stroke="#000000" stroke-width="6" stroke-linecap="round"/><path d="M177.40806,155.93842l52.91124,0.75672" fill="none" stroke="#000000" stroke-width="6" stroke-linecap="round"/><path d="M239.72344,160.89269l-5.02804,-8.33528" fill="none" stroke="#ffb3b3" stroke-width="4" stroke-linecap="round"/><path d="M242.466,148.80653l5.48513,7.50176" fill="none" stroke="#ffb3b3" stroke-width="4" stroke-linecap="round"/></g></g></svg>