<svg version="1.1" xmlns="http://www.w3.org/2000/svg" xmlns:xlink="http://www.w3.org/1999/xlink" width="76" height="73.02986" viewBox="0,0,76,73.02986"><g transform="translate(-202,-143.48507)"><g stroke-miterlimit="10"><path d="M274.125,180c0,17.85478 -15.27828,32.32895 -34.125,32.32895c-18.84672,0 -34.125,-14.47416 -34.125,-32.32895c0,-17.85478 15.27828,-32.32895 34.125,-32.32895c18.84672,0 34.125,14.47416 34.125,32.32895z" fill="#ffa152" stroke="#e57d33" stroke-width="4"/><path d="M202,216.51493v-73.02986h76v73.02986z" fill="none" stroke="none" stroke-width="0"/><g fill="#ffffff" stroke="#ffffff" stroke-width="4"><path d="M216.36995,179.42191c-1.8098,-7.9737 2.9298,-17.07147 9.8,-17.65376c4.9606,-0.42044 8.09792,3.10664 9.94694,6.49544c-1.69989,1.90554 -4.05969,8.27268 -3.27902,9.57379c1.26904,2.11507 4.28729,3.79479 4.28729,3.79479c0,0 -5.05832,1.30304 -4.46401,5.56226c0.20478,1.46756 7.74558,6.92 7.74558,6.92c0,0 -3.59177,5.02754 -3.84268,6.14834c-4.99087,-3.17834 -18.68798,-14.20522 -20.19409,-20.84087z"/><path d="M254.76995,161.68719c7.98971,1.33715 9.79691,10.96938 7.8,19.01567c-0.9519,3.83556 -13.65145,16.10771 -13.65145,16.10771c0,0 0.65991,-3.92333 -0.01851,-5.11057c-0.83702,-1.46479 -6.05095,-4.21346 -6.05095,-4.21346c0,0 7.80231,-3.5171 6.078,-7.50457c-0.65851,-1.5228 -6.92462,-5.55506 -6.92462,-5.55506c0,0 7.61942,-13.6013 12.76752,-12.73972z"/></g></g></g></svg>