<svg version="1.1" xmlns="http://www.w3.org/2000/svg" xmlns:xlink="http://www.w3.org/1999/xlink" width="182" height="169.66667" viewBox="0,0,182,169.66667"><g transform="translate(-149.16667,-96.83333)"><g stroke-miterlimit="10"><path d="M151.16667,266.5v-169.66667h176.97701v169.66667z" fill="none" stroke="none" stroke-width="0" stroke-linecap="butt"/><path d="M167.02299,249.82755c-4.32184,-4.56194 -10.22989,-43.48695 -10.22989,-69.3868c0,-24.34851 7.73932,-60.71549 13.0431,-67.18015c5.64597,-6.88173 43.77552,-10.54287 70.07471,-10.54287c26.21395,0 64.35747,4.36773 70.33046,9.80732c3.499,3.18653 12.78736,39.85845 12.78736,65.46387c0,24.70671 -3.0644,68.84709 -7.92816,73.06455c-3.17025,2.74899 -45.90674,8.58141 -72.12069,8.58141c-26.29919,0 -71.15157,-4.73502 -75.9569,-9.80732z" fill="#648aff" stroke="#000000" stroke-width="4" stroke-linecap="butt"/><path d="M175.25561,133.70698c-1.65033,-0.61313 -0.54065,-5.72651 0.12446,-8.49432c0.59488,-2.47559 2.71657,-6.94295 3.91447,-7.31634c3.25835,-1.01566 43.78317,2.70856 49.89876,3.72403c1.61554,0.26825 1.19151,5.01206 0.55759,7.6501c-0.63394,2.63804 -2.41867,8.12567 -3.65504,8.23082c-0.38012,0.03232 -0.97473,0.01252 -1.76295,0.03874c-10.08325,0.33523 -46.19456,-2.76203 -49.07729,-3.83302z" fill="#000000" stroke="#000000" stroke-width="4" stroke-linecap="butt"/><path d="M253.27758,138.18761c-0.78775,-0.03856 -1.38265,-0.02808 -1.76221,-0.06635c-1.23459,-0.1245 -2.93046,-5.63906 -3.52167,-8.28654c-0.59121,-2.64748 -0.93847,-7.39703 0.6813,-7.63991c6.13163,-0.91945 46.71408,-4.00798 49.9558,-2.94145c1.19178,0.3921 3.24106,4.89184 3.79587,7.37631c0.6203,2.7777 1.64719,7.90751 -0.01295,8.49467c-2.89987,1.02562 -39.05897,3.55645 -49.13614,3.0633z" fill="#000000" stroke="#000000" stroke-width="4" stroke-linecap="butt"/><path d="M303.59195,152.08125l-45.35249,-0.65381" fill="none" stroke="#000000" stroke-width="6" stroke-linecap="round"/><path d="M258.23947,160.58092l45.35249,0.65382" fill="none" stroke="#000000" stroke-width="6" stroke-linecap="round"/><path d="M176.74138,151.42743l45.35249,0.65381" fill="none" stroke="#000000" stroke-width="6" stroke-linecap="round"/><path d="M176.74138,160.58092l45.35249,0.65382" fill="none" stroke="#000000" stroke-width="6" stroke-linecap="round"/><path d="M156.08172,174.14772l-4.91505,-8.56731" fill="none" stroke="#ffb3b3" stroke-width="4" stroke-linecap="round"/><path d="M164.12452,169.43571l-5.36187,-7.71059" fill="none" stroke="#ffb3b3" stroke-width="4" stroke-linecap="round"/><path d="M321.12386,174.14772l-4.91505,-8.56732" fill="none" stroke="#ffb3b3" stroke-width="4" stroke-linecap="round"/><path d="M329.16667,169.43569l-5.36187,-7.71059" fill="none" stroke="#ffb3b3" stroke-width="4" stroke-linecap="round"/><path d="M237.41505,164.48106l-4.91505,-8.56731" fill="none" stroke="#ffb3b3" stroke-width="4" stroke-linecap="round"/><path d="M245.45785,159.76905l-5.36187,-7.71059" fill="none" stroke="#ffb3b3" stroke-width="4" stroke-linecap="round"/></g></g></svg>